<svg width="28" height="28" viewBox="0 0 28 28" fill="none" xmlns="http://www.w3.org/2000/svg">
<path d="M14 15.75C15.4497 15.75 16.625 14.5747 16.625 13.125C16.625 11.6753 15.4497 10.5 14 10.5C12.5503 10.5 11.375 11.6753 11.375 13.125C11.375 14.5747 12.5503 15.75 14 15.75Z" stroke="#FAFAFB" stroke-width="2" stroke-linecap="round" stroke-linejoin="round"/>
<path d="M14.3175 24.5H13.6832C13.2778 24.5001 12.885 24.3594 12.5718 24.1021C12.2587 23.8448 12.0445 23.4867 11.966 23.0891L10.916 17.8391C10.8659 17.5854 10.8726 17.3237 10.9357 17.073C10.9988 16.8222 11.1167 16.5885 11.2809 16.3888C11.4451 16.189 11.6516 16.0281 11.8854 15.9177C12.1192 15.8072 12.3746 15.7499 12.6332 15.75H15.3675C15.6261 15.7499 15.8815 15.8072 16.1153 15.9177C16.3491 16.0281 16.5556 16.189 16.7198 16.3888C16.884 16.5885 17.0019 16.8222 17.065 17.073C17.1281 17.3237 17.1348 17.5854 17.0847 17.8391L16.0347 23.0891C15.9562 23.4867 15.742 23.8448 15.4289 24.1021C15.1157 24.3594 14.7229 24.5001 14.3175 24.5V24.5Z" stroke="#FAFAFB" stroke-width="2" stroke-linecap="round" stroke-linejoin="round"/>
<path d="M7.47031 16.5377C7.06061 15.4771 6.91539 14.3328 7.04721 13.2035C7.17903 12.0743 7.58393 10.9941 8.22689 10.0565C8.86984 9.11881 9.73151 8.35187 10.7374 7.82197C11.7433 7.29206 12.8631 7.01514 14 7.01514C15.1369 7.01514 16.2567 7.29206 17.2626 7.82197C18.2685 8.35187 19.1302 9.11881 19.7731 10.0565C20.4161 10.9941 20.821 12.0743 20.9528 13.2035C21.0846 14.3328 20.9394 15.4771 20.5297 16.5377" stroke="#FAFAFB" stroke-width="2" stroke-linecap="round" stroke-linejoin="round"/>
<path d="M8.35625 22.8484C6.44036 21.6272 4.97226 19.8175 4.17233 17.691C3.3724 15.5645 3.2838 13.2359 3.91983 11.0547C4.55586 8.87359 5.8822 6.95758 7.69975 5.59433C9.51731 4.23108 11.728 3.49414 14 3.49414C16.272 3.49414 18.4827 4.23108 20.3003 5.59433C22.1178 6.95758 23.4441 8.87359 24.0802 11.0547C24.7162 13.2359 24.6276 15.5645 23.8277 17.691C23.0277 19.8175 21.5596 21.6272 19.6438 22.8484" stroke="#FAFAFB" stroke-width="2" stroke-linecap="round" stroke-linejoin="round"/>
</svg>
