<svg width="28" height="28" viewBox="0 0 28 28" fill="none" xmlns="http://www.w3.org/2000/svg">
<path d="M15.1045 3.55469C15.3589 2.89407 15.8076 2.32613 16.3915 1.92582C16.9754 1.52551 17.6669 1.31167 18.3748 1.3125" stroke="#FAFAFB" stroke-width="2" stroke-linecap="round" stroke-linejoin="round"/>
<path d="M23.8984 17.8174C22.5203 21.1862 20.0266 23.6252 17.9375 23.6252H10.0625C7 23.6252 3.0625 18.3752 3.0625 12.6877C3.06295 11.4211 3.42995 10.1817 4.11922 9.11897C4.80849 8.05629 5.79056 7.21578 6.94694 6.69888C8.10331 6.18199 9.38456 6.01078 10.6361 6.20593C11.8876 6.40108 13.0559 6.95425 14 7.79868V7.79868C14.6683 7.19998 15.4522 6.74467 16.3034 6.4609C17.1546 6.17712 18.0549 6.0709 18.9488 6.14881C19.8426 6.22671 20.711 6.48708 21.5003 6.91383C22.2895 7.34058 22.9829 7.92464 23.5375 8.62993V8.62993C22.7336 9.11533 22.0747 9.80745 21.6293 10.6342C21.1839 11.4609 20.9684 12.3919 21.0053 13.3302C21.0422 14.2686 21.33 15.1798 21.8389 15.9691C22.3477 16.7583 23.059 17.3966 23.8984 17.8174V17.8174Z" stroke="#FAFAFB" stroke-width="2" stroke-linecap="round" stroke-linejoin="round"/>
</svg>
