<svg width="28" height="28" viewBox="0 0 28 28" fill="none" xmlns="http://www.w3.org/2000/svg">
<path d="M24.5 6.125H3.5C3.01675 6.125 2.625 6.51675 2.625 7V9.625C2.625 10.1082 3.01675 10.5 3.5 10.5H24.5C24.9832 10.5 25.375 10.1082 25.375 9.625V7C25.375 6.51675 24.9832 6.125 24.5 6.125Z" stroke="#FAFAFB" stroke-width="2" stroke-linecap="round" stroke-linejoin="round"/>
<path d="M23.625 10.5V21C23.625 21.2321 23.5328 21.4546 23.3687 21.6187C23.2046 21.7828 22.9821 21.875 22.75 21.875H5.25C5.01794 21.875 4.79538 21.7828 4.63128 21.6187C4.46719 21.4546 4.375 21.2321 4.375 21V10.5" stroke="#FAFAFB" stroke-width="2" stroke-linecap="round" stroke-linejoin="round"/>
<path d="M11.375 14.875H16.625" stroke="#FAFAFB" stroke-width="2" stroke-linecap="round" stroke-linejoin="round"/>
</svg>
