<svg width="28" height="28" viewBox="0 0 28 28" fill="none" xmlns="http://www.w3.org/2000/svg">
<path d="M22.75 4.375H5.25C4.76675 4.375 4.375 4.76675 4.375 5.25V22.75C4.375 23.2332 4.76675 23.625 5.25 23.625H22.75C23.2332 23.625 23.625 23.2332 23.625 22.75V5.25C23.625 4.76675 23.2332 4.375 22.75 4.375Z" stroke="#FAFAFB" stroke-width="2" stroke-linecap="round" stroke-linejoin="round"/>
<path d="M10.292 12.917L13.9998 16.6248L17.7076 12.917" stroke="#FAFAFB" stroke-width="2" stroke-linecap="round" stroke-linejoin="round"/>
<path d="M14 7.875V16.625" stroke="#FAFAFB" stroke-width="2" stroke-linecap="round" stroke-linejoin="round"/>
<path d="M4.375 17.5H8.38906C8.50268 17.4996 8.61526 17.5216 8.72037 17.5648C8.82547 17.608 8.92102 17.6714 9.00156 17.7516L11.1234 19.8734C11.204 19.9536 11.2995 20.0171 11.4046 20.0602C11.5097 20.1034 11.6223 20.1254 11.7359 20.125H16.2641C16.3777 20.1254 16.4903 20.1034 16.5954 20.0602C16.7005 20.0171 16.796 19.9536 16.8766 19.8734L18.9984 17.7516C19.079 17.6714 19.1745 17.608 19.2796 17.5648C19.3847 17.5216 19.4973 17.4996 19.6109 17.5H23.625" stroke="#FAFAFB" stroke-width="2" stroke-linecap="round" stroke-linejoin="round"/>
</svg>
