<svg width="28" height="28" viewBox="0 0 28 28" fill="none" xmlns="http://www.w3.org/2000/svg">
<path d="M18.375 8.75H25.375" stroke="#FAFAFB" stroke-width="2" stroke-linecap="round" stroke-linejoin="round"/>
<path d="M17.5 16.6251H26.25C26.2482 15.6159 25.8966 14.6386 25.2552 13.8594C24.6137 13.0802 23.7221 12.5475 22.732 12.3518C21.7419 12.1562 20.7146 12.3097 19.825 12.7863C18.9355 13.2629 18.2385 14.0331 17.853 14.9658C17.4674 15.8984 17.417 16.9359 17.7103 17.9015C18.0036 18.8672 18.6226 19.7013 19.4617 20.2619C20.3009 20.8225 21.3085 21.075 22.3129 20.9762C23.3172 20.8775 24.2563 20.4337 24.9703 19.7205" stroke="#FAFAFB" stroke-width="2" stroke-linecap="round" stroke-linejoin="round"/>
<path d="M3.5 13.5625H10.7188C11.705 13.5625 12.6509 13.9543 13.3483 14.6517C14.0457 15.3491 14.4375 16.295 14.4375 17.2812C14.4375 18.2675 14.0457 19.2134 13.3483 19.9108C12.6509 20.6082 11.705 21 10.7188 21H3.5V7H9.40625C10.2765 7 11.1111 7.3457 11.7264 7.96106C12.3418 8.57641 12.6875 9.41101 12.6875 10.2812C12.6875 11.1515 12.3418 11.9861 11.7264 12.6014C11.1111 13.2168 10.2765 13.5625 9.40625 13.5625" stroke="#FAFAFB" stroke-width="2" stroke-linecap="round" stroke-linejoin="round"/>
</svg>
