<svg width="28" height="28" viewBox="0 0 28 28" fill="none" xmlns="http://www.w3.org/2000/svg">
<path d="M23.625 7.875H4.375C3.89175 7.875 3.5 8.26675 3.5 8.75V22.75C3.5 23.2332 3.89175 23.625 4.375 23.625H23.625C24.1082 23.625 24.5 23.2332 24.5 22.75V8.75C24.5 8.26675 24.1082 7.875 23.625 7.875Z" stroke="#FAFAFB" stroke-width="2" stroke-linecap="round" stroke-linejoin="round"/>
<path d="M18.375 7.875V6.125C18.375 5.66087 18.1906 5.21575 17.8624 4.88756C17.5342 4.55937 17.0891 4.375 16.625 4.375H11.375C10.9109 4.375 10.4658 4.55937 10.1376 4.88756C9.80937 5.21575 9.625 5.66087 9.625 6.125V7.875" stroke="#FAFAFB" stroke-width="2" stroke-linecap="round" stroke-linejoin="round"/>
<path d="M3.5 19.25H24.5" stroke="#FAFAFB" stroke-width="2" stroke-linecap="round" stroke-linejoin="round"/>
<path d="M3.5 12.25H24.5" stroke="#FAFAFB" stroke-width="2" stroke-linecap="round" stroke-linejoin="round"/>
</svg>
