<svg width="28" height="28" viewBox="0 0 28 28" fill="none" xmlns="http://www.w3.org/2000/svg">
<path d="M17.0625 11.375C17.7874 11.375 18.375 10.7874 18.375 10.0625C18.375 9.33763 17.7874 8.75 17.0625 8.75C16.3376 8.75 15.75 9.33763 15.75 10.0625C15.75 10.7874 16.3376 11.375 17.0625 11.375Z" fill="#FAFAFB"/>
<path d="M10.9375 11.375C11.6624 11.375 12.25 10.7874 12.25 10.0625C12.25 9.33763 11.6624 8.75 10.9375 8.75C10.2126 8.75 9.625 9.33763 9.625 10.0625C9.625 10.7874 10.2126 11.375 10.9375 11.375Z" fill="#FAFAFB"/>
<path d="M14 14V24.5" stroke="#FAFAFB" stroke-width="2" stroke-linecap="round" stroke-linejoin="round"/>
<path d="M26.6875 14H1.3125" stroke="#FAFAFB" stroke-width="2" stroke-linecap="round" stroke-linejoin="round"/>
<path d="M22.75 15.75C22.75 18.0706 21.8281 20.2962 20.1872 21.9372C18.5462 23.5781 16.3206 24.5 14 24.5C11.6794 24.5 9.45376 23.5781 7.81282 21.9372C6.17187 20.2962 5.25 18.0706 5.25 15.75V12.25C5.25 9.92936 6.17187 7.70376 7.81282 6.06282C9.45376 4.42187 11.6794 3.5 14 3.5C16.3206 3.5 18.5462 4.42187 20.1872 6.06282C21.8281 7.70376 22.75 9.92936 22.75 12.25V15.75Z" stroke="#FAFAFB" stroke-width="2" stroke-linecap="round" stroke-linejoin="round"/>
<path d="M25.3637 20.5627L22.2246 18.7471" stroke="#FAFAFB" stroke-width="2" stroke-linecap="round" stroke-linejoin="round"/>
<path d="M25.3637 7.4375L22.2246 9.25313" stroke="#FAFAFB" stroke-width="2" stroke-linecap="round" stroke-linejoin="round"/>
<path d="M2.63574 7.4375L5.7748 9.25313" stroke="#FAFAFB" stroke-width="2" stroke-linecap="round" stroke-linejoin="round"/>
<path d="M2.63574 20.5627L5.7748 18.7471" stroke="#FAFAFB" stroke-width="2" stroke-linecap="round" stroke-linejoin="round"/>
</svg>
