<svg width="28" height="28" viewBox="0 0 28 28" fill="none" xmlns="http://www.w3.org/2000/svg">
<path d="M22.75 16.1875C22.75 18.5081 21.8281 20.7337 20.1872 22.3747C18.5462 24.0156 16.3206 24.9375 14 24.9375C11.6794 24.9375 9.45376 24.0156 7.81282 22.3747C6.17187 20.7337 5.25 18.5081 5.25 16.1875V11.8125C5.25 9.49186 6.17187 7.26626 7.81282 5.62532C9.45376 3.98437 11.6794 3.0625 14 3.0625C16.3206 3.0625 18.5462 3.98437 20.1872 5.62532C21.8281 7.26626 22.75 9.49186 22.75 11.8125V16.1875Z" stroke="#FAFAFB" stroke-width="2" stroke-linecap="round" stroke-linejoin="round"/>
<path d="M22.75 14H5.25" stroke="#FAFAFB" stroke-width="2" stroke-linecap="round" stroke-linejoin="round"/>
<path d="M17.0625 11.375C17.7874 11.375 18.375 10.7874 18.375 10.0625C18.375 9.33763 17.7874 8.75 17.0625 8.75C16.3376 8.75 15.75 9.33763 15.75 10.0625C15.75 10.7874 16.3376 11.375 17.0625 11.375Z" fill="#FAFAFB"/>
<path d="M10.9375 11.375C11.6624 11.375 12.25 10.7874 12.25 10.0625C12.25 9.33763 11.6624 8.75 10.9375 8.75C10.2126 8.75 9.625 9.33763 9.625 10.0625C9.625 10.7874 10.2126 11.375 10.9375 11.375Z" fill="#FAFAFB"/>
<path d="M6.125 3.0625L8.34531 5.12969" stroke="#FAFAFB" stroke-width="2" stroke-linecap="round" stroke-linejoin="round"/>
<path d="M21.8746 3.0625L19.6543 5.12969" stroke="#FAFAFB" stroke-width="2" stroke-linecap="round" stroke-linejoin="round"/>
</svg>
