<svg width="28" height="28" viewBox="0 0 28 28" fill="none" xmlns="http://www.w3.org/2000/svg">
<path d="M5.96094 22.0391C4.95469 21.0328 5.62188 18.9219 5.10781 17.6859C4.59375 16.45 2.625 15.3672 2.625 14C2.625 12.6328 4.57188 11.5938 5.10781 10.3141C5.64375 9.03438 4.95469 6.96719 5.96094 5.96094C6.96719 4.95469 9.07813 5.62188 10.3141 5.10781C11.55 4.59375 12.6328 2.625 14 2.625C15.3672 2.625 16.4062 4.57188 17.6859 5.10781C18.9656 5.64375 21.0328 4.95469 22.0391 5.96094C23.0453 6.96719 22.3781 9.07813 22.8922 10.3141C23.4063 11.55 25.375 12.6328 25.375 14C25.375 15.3672 23.4281 16.4062 22.8922 17.6859C22.3563 18.9656 23.0453 21.0328 22.0391 22.0391C21.0328 23.0453 18.9219 22.3781 17.6859 22.8922C16.45 23.4063 15.3672 25.375 14 25.375C12.6328 25.375 11.5938 23.4281 10.3141 22.8922C9.03438 22.3563 6.96719 23.0453 5.96094 22.0391Z" stroke="#FAFAFB" stroke-width="2" stroke-linecap="round" stroke-linejoin="round"/>
<path d="M14 21C14.7249 21 15.3125 20.4124 15.3125 19.6875C15.3125 18.9626 14.7249 18.375 14 18.375C13.2751 18.375 12.6875 18.9626 12.6875 19.6875C12.6875 20.4124 13.2751 21 14 21Z" fill="#FAFAFB"/>
<path d="M14 15.75V14.875C14.6057 14.875 15.1978 14.6954 15.7014 14.3589C16.2051 14.0224 16.5976 13.5441 16.8294 12.9845C17.0612 12.4249 17.1218 11.8091 17.0037 11.215C16.8855 10.621 16.5938 10.0753 16.1655 9.64699C15.7372 9.21869 15.1915 8.92701 14.5975 8.80885C14.0034 8.69068 13.3876 8.75133 12.828 8.98312C12.2684 9.21491 11.7901 9.60744 11.4536 10.1111C11.1171 10.6147 10.9375 11.2068 10.9375 11.8125" stroke="#FAFAFB" stroke-width="2" stroke-linecap="round" stroke-linejoin="round"/>
</svg>
