<svg width="28" height="28" viewBox="0 0 28 28" fill="none" xmlns="http://www.w3.org/2000/svg">
<path d="M5.96094 22.0391C4.95469 21.0328 5.62188 18.9219 5.10781 17.6859C4.59375 16.45 2.625 15.3672 2.625 14C2.625 12.6328 4.57188 11.5938 5.10781 10.3141C5.64375 9.03438 4.95469 6.96719 5.96094 5.96094C6.96719 4.95469 9.07813 5.62188 10.3141 5.10781C11.55 4.59375 12.6328 2.625 14 2.625C15.3672 2.625 16.4062 4.57188 17.6859 5.10781C18.9656 5.64375 21.0328 4.95469 22.0391 5.96094C23.0453 6.96719 22.3781 9.07813 22.8922 10.3141C23.4063 11.55 25.375 12.6328 25.375 14C25.375 15.3672 23.4281 16.4062 22.8922 17.6859C22.3563 18.9656 23.0453 21.0328 22.0391 22.0391C21.0328 23.0453 18.9219 22.3781 17.6859 22.8922C16.45 23.4063 15.3672 25.375 14 25.375C12.6328 25.375 11.5938 23.4281 10.3141 22.8922C9.03438 22.3563 6.96719 23.0453 5.96094 22.0391Z" stroke="#FAFAFB" stroke-width="2" stroke-linecap="round" stroke-linejoin="round"/>
<path d="M18.8125 11.375L12.3922 17.5L9.1875 14.4375" stroke="#FAFAFB" stroke-width="2" stroke-linecap="round" stroke-linejoin="round"/>
</svg>
