<svg width="28" height="28" viewBox="0 0 28 28" fill="none" xmlns="http://www.w3.org/2000/svg">
<path d="M24.5 19.3923V8.60795C24.4992 8.45217 24.4573 8.29937 24.3785 8.16495C24.2998 8.03053 24.187 7.91925 24.0516 7.84232L14.4266 2.42826C14.2969 2.35338 14.1498 2.31396 14 2.31396C13.8502 2.31396 13.7031 2.35338 13.5734 2.42826L3.94844 7.84232C3.81298 7.91925 3.70019 8.03053 3.62146 8.16495C3.54273 8.29937 3.50084 8.45217 3.5 8.60795V19.3923C3.50084 19.5481 3.54273 19.7009 3.62146 19.8353C3.70019 19.9697 3.81298 20.081 3.94844 20.1579L13.5734 25.572C13.7031 25.6469 13.8502 25.6863 14 25.6863C14.1498 25.6863 14.2969 25.6469 14.4266 25.572L24.0516 20.1579C24.187 20.081 24.2998 19.9697 24.3785 19.8353C24.4573 19.7009 24.4992 19.5481 24.5 19.3923V19.3923Z" stroke="#FAFAFB" stroke-width="2" stroke-linecap="round" stroke-linejoin="round"/>
<path d="M24.3795 8.15918L14.0982 13.9998L3.62012 8.15918" stroke="#FAFAFB" stroke-width="2" stroke-linecap="round" stroke-linejoin="round"/>
<path d="M14.0984 14L14 25.6812" stroke="#FAFAFB" stroke-width="2" stroke-linecap="round" stroke-linejoin="round"/>
<path d="M19.3594 5.19531L14 8.21406L8.64062 5.19531" stroke="#FAFAFB" stroke-width="2" stroke-linecap="round" stroke-linejoin="round"/>
<path d="M19.25 22.8596V16.833L24.5 13.8799" stroke="#FAFAFB" stroke-width="2" stroke-linecap="round" stroke-linejoin="round"/>
<path d="M8.75 22.8596V16.833L3.5 13.8799" stroke="#FAFAFB" stroke-width="2" stroke-linecap="round" stroke-linejoin="round"/>
</svg>
