<svg width="28" height="28" viewBox="0 0 28 28" fill="none" xmlns="http://www.w3.org/2000/svg">
<path d="M14 14C19.3157 14 23.625 11.6495 23.625 8.75C23.625 5.85051 19.3157 3.5 14 3.5C8.68426 3.5 4.375 5.85051 4.375 8.75C4.375 11.6495 8.68426 14 14 14Z" stroke="#FAFAFB" stroke-width="2" stroke-linecap="round" stroke-linejoin="round"/>
<path d="M4.375 8.75V14C4.375 16.8984 8.68438 19.25 14 19.25C19.3156 19.25 23.625 16.8984 23.625 14V8.75" stroke="#FAFAFB" stroke-width="2" stroke-linecap="round" stroke-linejoin="round"/>
<path d="M4.375 14V19.25C4.375 22.1484 8.68438 24.5 14 24.5C19.3156 24.5 23.625 22.1484 23.625 19.25V14" stroke="#FAFAFB" stroke-width="2" stroke-linecap="round" stroke-linejoin="round"/>
</svg>
