<svg width="30" height="28" viewBox="0 0 30 28" fill="none" xmlns="http://www.w3.org/2000/svg">
<path d="M9.3125 22.75C11.0039 22.75 12.375 21.3789 12.375 19.6875C12.375 17.9961 11.0039 16.625 9.3125 16.625C7.62113 16.625 6.25 17.9961 6.25 19.6875C6.25 21.3789 7.62113 22.75 9.3125 22.75Z" stroke="#FAFAFB" stroke-width="2" stroke-linecap="round" stroke-linejoin="round"/>
<path d="M20.6875 22.75C22.3789 22.75 23.75 21.3789 23.75 19.6875C23.75 17.9961 22.3789 16.625 20.6875 16.625C18.9961 16.625 17.625 17.9961 17.625 19.6875C17.625 21.3789 18.9961 22.75 20.6875 22.75Z" stroke="#FAFAFB" stroke-width="2" stroke-linecap="round" stroke-linejoin="round"/>
<path d="M12.375 19.6875H17.625" stroke="#FAFAFB" stroke-width="2" stroke-linecap="round" stroke-linejoin="round"/>
<path d="M1.875 13.125H28.125" stroke="#FAFAFB" stroke-width="2" stroke-linecap="round" stroke-linejoin="round"/>
<path d="M5.375 13.1249L10.7672 5.42489C10.8484 5.30819 10.9569 5.21305 11.0832 5.1477C11.2094 5.08234 11.3498 5.04875 11.4919 5.04983C11.6341 5.05091 11.7739 5.08662 11.8992 5.15388C12.0245 5.22113 12.1315 5.31791 12.2109 5.43583L14.2672 8.53114C14.3467 8.65301 14.4554 8.75312 14.5833 8.82242C14.7113 8.89172 14.8545 8.92801 15 8.92801C15.1455 8.92801 15.2887 8.89172 15.4167 8.82242C15.5446 8.75312 15.6533 8.65301 15.7328 8.53114L17.7891 5.43583C17.8685 5.31791 17.9755 5.22113 18.1008 5.15388C18.2261 5.08662 18.3659 5.05091 18.5081 5.04983C18.6502 5.04875 18.7906 5.08234 18.9168 5.1477C19.0431 5.21305 19.1516 5.30819 19.2328 5.42489L24.625 13.1249" stroke="#FAFAFB" stroke-width="2" stroke-linecap="round" stroke-linejoin="round"/>
</svg>
