<svg width="28" height="28" viewBox="0 0 28 28" fill="none" xmlns="http://www.w3.org/2000/svg">
<path d="M10.5 17.0625C11.2249 17.0625 11.8125 16.4749 11.8125 15.75C11.8125 15.0251 11.2249 14.4375 10.5 14.4375C9.77513 14.4375 9.1875 15.0251 9.1875 15.75C9.1875 16.4749 9.77513 17.0625 10.5 17.0625Z" fill="#FAFAFB"/>
<path d="M17.5 17.0625C18.2249 17.0625 18.8125 16.4749 18.8125 15.75C18.8125 15.0251 18.2249 14.4375 17.5 14.4375C16.7751 14.4375 16.1875 15.0251 16.1875 15.75C16.1875 16.4749 16.7751 17.0625 17.5 17.0625Z" fill="#FAFAFB"/>
<path d="M8.1377 8.75003C10.0345 8.15555 12.0124 7.86034 14.0002 7.87503C15.988 7.86034 17.9659 8.15555 19.8627 8.75003" stroke="#FAFAFB" stroke-width="2" stroke-linecap="round" stroke-linejoin="round"/>
<path d="M19.8627 19.25C17.9659 19.8445 15.988 20.1397 14.0002 20.125C12.0124 20.1397 10.0345 19.8445 8.1377 19.25" stroke="#FAFAFB" stroke-width="2" stroke-linecap="round" stroke-linejoin="round"/>
<path d="M16.9529 19.917L18.2764 22.542C18.3615 22.721 18.5064 22.8648 18.686 22.9486C18.8656 23.0324 19.0688 23.0511 19.2607 23.0014C21.9404 22.3451 24.2592 21.2076 25.9436 19.742C26.0705 19.63 26.1628 19.4839 26.2093 19.321C26.2558 19.1582 26.2547 18.9855 26.2061 18.8232L22.4982 6.442C22.4622 6.31529 22.3968 6.19882 22.3076 6.10194C22.2183 6.00506 22.1075 5.93048 21.9842 5.88418C20.9366 5.45442 19.8533 5.1177 18.7467 4.87793C18.534 4.83136 18.3117 4.86472 18.122 4.97164C17.9324 5.07856 17.7888 5.25156 17.7186 5.45762L16.8545 8.07168" stroke="#FAFAFB" stroke-width="2" stroke-linecap="round" stroke-linejoin="round"/>
<path d="M11.0468 19.917L9.72335 22.542C9.6382 22.721 9.49336 22.8648 9.31373 22.9486C9.13409 23.0324 8.93087 23.0511 8.73898 23.0014C6.05929 22.3451 3.74054 21.2076 2.05616 19.742C1.92917 19.63 1.83696 19.4839 1.79044 19.321C1.74391 19.1582 1.74503 18.9855 1.79366 18.8232L5.50148 6.442C5.53756 6.31529 5.60287 6.19882 5.69215 6.10194C5.78143 6.00506 5.89219 5.93048 6.01554 5.88418C7.06309 5.45442 8.14644 5.1177 9.25304 4.87793C9.4657 4.83136 9.68806 4.86472 9.87769 4.97164C10.0673 5.07856 10.2109 5.25156 10.2812 5.45762L11.1452 8.07168" stroke="#FAFAFB" stroke-width="2" stroke-linecap="round" stroke-linejoin="round"/>
<path d="M10.5 17.0625C11.2249 17.0625 11.8125 16.4749 11.8125 15.75C11.8125 15.0251 11.2249 14.4375 10.5 14.4375C9.77513 14.4375 9.1875 15.0251 9.1875 15.75C9.1875 16.4749 9.77513 17.0625 10.5 17.0625Z" fill="#FAFAFB"/>
<path d="M17.5 17.0625C18.2249 17.0625 18.8125 16.4749 18.8125 15.75C18.8125 15.0251 18.2249 14.4375 17.5 14.4375C16.7751 14.4375 16.1875 15.0251 16.1875 15.75C16.1875 16.4749 16.7751 17.0625 17.5 17.0625Z" fill="#FAFAFB"/>
<path d="M8.1377 8.75003C10.0345 8.15555 12.0124 7.86034 14.0002 7.87503C15.988 7.86034 17.9659 8.15555 19.8627 8.75003" stroke="#FAFAFB" stroke-width="2" stroke-linecap="round" stroke-linejoin="round"/>
<path d="M19.8627 19.25C17.9659 19.8445 15.988 20.1397 14.0002 20.125C12.0124 20.1397 10.0345 19.8445 8.1377 19.25" stroke="#FAFAFB" stroke-width="2" stroke-linecap="round" stroke-linejoin="round"/>
<path d="M16.9529 19.917L18.2764 22.542C18.3615 22.721 18.5064 22.8648 18.686 22.9486C18.8656 23.0324 19.0688 23.0511 19.2607 23.0014C21.9404 22.3451 24.2592 21.2076 25.9436 19.742C26.0705 19.63 26.1628 19.4839 26.2093 19.321C26.2558 19.1582 26.2547 18.9855 26.2061 18.8232L22.4982 6.442C22.4622 6.31529 22.3968 6.19882 22.3076 6.10194C22.2183 6.00506 22.1075 5.93048 21.9842 5.88418C20.9366 5.45442 19.8533 5.1177 18.7467 4.87793C18.534 4.83136 18.3117 4.86472 18.122 4.97164C17.9324 5.07856 17.7888 5.25156 17.7186 5.45762L16.8545 8.07168" stroke="#FAFAFB" stroke-width="2" stroke-linecap="round" stroke-linejoin="round"/>
<path d="M11.0468 19.917L9.72335 22.542C9.6382 22.721 9.49336 22.8648 9.31373 22.9486C9.13409 23.0324 8.93087 23.0511 8.73898 23.0014C6.05929 22.3451 3.74054 21.2076 2.05616 19.742C1.92917 19.63 1.83696 19.4839 1.79044 19.321C1.74391 19.1582 1.74503 18.9855 1.79366 18.8232L5.50148 6.442C5.53756 6.31529 5.60287 6.19882 5.69215 6.10194C5.78143 6.00506 5.89219 5.93048 6.01554 5.88418C7.06309 5.45442 8.14644 5.1177 9.25304 4.87793C9.4657 4.83136 9.68806 4.86472 9.87769 4.97164C10.0673 5.07856 10.2109 5.25156 10.2812 5.45762L11.1452 8.07168" stroke="#FAFAFB" stroke-width="2" stroke-linecap="round" stroke-linejoin="round"/>
</svg>
