<svg width="28" height="28" viewBox="0 0 28 28" fill="none" xmlns="http://www.w3.org/2000/svg">
<path d="M14 24.5C19.799 24.5 24.5 19.799 24.5 14C24.5 8.20101 19.799 3.5 14 3.5C8.20101 3.5 3.5 8.20101 3.5 14C3.5 19.799 8.20101 24.5 14 24.5Z" stroke="#FAFAFB" stroke-width="2" stroke-linecap="round" stroke-linejoin="round"/>
<path d="M7.76562 22.4547C9.32445 19.875 11.5228 17.7413 14.1479 16.2601C16.7729 14.779 19.7359 14.0005 22.75 14C23.3406 14 23.9203 14.0328 24.5 14.0875" stroke="#FAFAFB" stroke-width="2" stroke-linecap="round" stroke-linejoin="round"/>
<path d="M20.5627 5.80762C18.9227 7.82166 16.8545 9.4449 14.5085 10.5593C12.1624 11.6737 9.59747 12.2512 7.00019 12.2498C5.89575 12.2486 4.79374 12.146 3.70801 11.9436" stroke="#FAFAFB" stroke-width="2" stroke-linecap="round" stroke-linejoin="round"/>
<path d="M9.39551 4.56104C12.6511 6.48015 15.2004 9.39861 16.6645 12.8826C18.1287 16.3665 18.4294 20.23 17.5221 23.8985" stroke="#FAFAFB" stroke-width="2" stroke-linecap="round" stroke-linejoin="round"/>
</svg>
