<svg width="28" height="28" viewBox="0 0 28 28" fill="none" xmlns="http://www.w3.org/2000/svg">
<path d="M17.7188 17.7188C19.7726 17.7188 21.4375 16.0538 21.4375 14C21.4375 11.9462 19.7726 10.2812 17.7188 10.2812C15.6649 10.2812 14 11.9462 14 14C14 16.0538 15.6649 17.7188 17.7188 17.7188Z" stroke="#FAFAFB" stroke-width="2" stroke-linecap="round" stroke-linejoin="round"/>
<path d="M14 10.2812V2.84375H10.2812C9.29498 2.84375 8.3491 3.23555 7.6517 3.93295C6.9543 4.63035 6.5625 5.57623 6.5625 6.5625C6.5625 7.54877 6.9543 8.49465 7.6517 9.19205C8.3491 9.88945 9.29498 10.2812 10.2812 10.2812H14Z" stroke="#FAFAFB" stroke-width="2" stroke-linecap="round" stroke-linejoin="round"/>
<path d="M14 17.7188V10.2812H10.2812C9.29498 10.2812 8.3491 10.673 7.6517 11.3704C6.9543 12.0678 6.5625 13.0137 6.5625 14C6.5625 14.9863 6.9543 15.9322 7.6517 16.6296C8.3491 17.327 9.29498 17.7187 10.2812 17.7188H14Z" stroke="#FAFAFB" stroke-width="2" stroke-linecap="round" stroke-linejoin="round"/>
<path d="M14 10.2812V2.84375H17.7188C18.705 2.84375 19.6509 3.23555 20.3483 3.93295C21.0457 4.63035 21.4375 5.57623 21.4375 6.5625C21.4375 7.54877 21.0457 8.49465 20.3483 9.19205C19.6509 9.88945 18.705 10.2812 17.7188 10.2812H14Z" stroke="#FAFAFB" stroke-width="2" stroke-linecap="round" stroke-linejoin="round"/>
<path d="M14 17.7188V21.4375C14 22.173 13.7819 22.892 13.3733 23.5035C12.9647 24.1151 12.3839 24.5917 11.7044 24.8732C11.0248 25.1546 10.2771 25.2283 9.55576 25.0848C8.83439 24.9413 8.17177 24.5871 7.6517 24.0671C7.13162 23.547 6.77745 22.8844 6.63396 22.163C6.49047 21.4416 6.56411 20.6939 6.84557 20.0144C7.12704 19.3349 7.60368 18.7541 8.21522 18.3455C8.82677 17.9369 9.54575 17.7188 10.2813 17.7188H14Z" stroke="#FAFAFB" stroke-width="2" stroke-linecap="round" stroke-linejoin="round"/>
</svg>
