<svg width="28" height="28" viewBox="0 0 28 28" fill="none" xmlns="http://www.w3.org/2000/svg">
<path d="M16.625 3.5V9.625H22.75" stroke="#FAFAFB" stroke-width="2" stroke-linecap="round" stroke-linejoin="round"/>
<path d="M18.375 24.5H21.875C22.1071 24.5 22.3296 24.4078 22.4937 24.2437C22.6578 24.0796 22.75 23.8571 22.75 23.625V9.625L16.625 3.5H6.125C5.89294 3.5 5.67038 3.59219 5.50628 3.75628C5.34219 3.92038 5.25 4.14294 5.25 4.375V14" stroke="#FAFAFB" stroke-width="2" stroke-linecap="round" stroke-linejoin="round"/>
<path d="M14 19.6875H6.125V24.5H14V19.6875Z" stroke="#FAFAFB" stroke-width="2" stroke-linecap="round" stroke-linejoin="round"/>
<path d="M7.875 19.6875V18.375C7.875 17.7948 8.10547 17.2384 8.5157 16.8282C8.92594 16.418 9.48234 16.1875 10.0625 16.1875C10.6427 16.1875 11.1991 16.418 11.6093 16.8282C12.0195 17.2384 12.25 17.7948 12.25 18.375V19.6875" stroke="#FAFAFB" stroke-width="2" stroke-linecap="round" stroke-linejoin="round"/>
</svg>
