<svg width="28" height="28" viewBox="0 0 28 28" fill="none" xmlns="http://www.w3.org/2000/svg">
<path d="M5.25 14V4.375C5.25 4.14294 5.34219 3.92038 5.50628 3.75628C5.67038 3.59219 5.89294 3.5 6.125 3.5H16.625L22.75 9.625V14" stroke="#FAFAFB" stroke-width="2" stroke-linecap="round" stroke-linejoin="round"/>
<path d="M16.625 3.5V9.625H22.75" stroke="#FAFAFB" stroke-width="2" stroke-linecap="round" stroke-linejoin="round"/>
<path d="M5.25 21.875H7C7.46413 21.875 7.90925 21.6906 8.23744 21.3624C8.56563 21.0342 8.75 20.5891 8.75 20.125C8.75 19.6609 8.56563 19.2158 8.23744 18.8876C7.90925 18.5594 7.46413 18.375 7 18.375H5.25V23.625" stroke="#FAFAFB" stroke-width="2" stroke-linecap="round" stroke-linejoin="round"/>
<path d="M23.625 18.375H20.5625V23.625" stroke="#FAFAFB" stroke-width="2" stroke-linecap="round" stroke-linejoin="round"/>
<path d="M23.1875 21.4375H20.5625" stroke="#FAFAFB" stroke-width="2" stroke-linecap="round" stroke-linejoin="round"/>
<path d="M14 23.625C14.6962 23.625 15.3639 23.3484 15.8562 22.8562C16.3484 22.3639 16.625 21.6962 16.625 21C16.625 20.3038 16.3484 19.6361 15.8562 19.1438C15.3639 18.6516 14.6962 18.375 14 18.375H12.4688V23.625H14Z" stroke="#FAFAFB" stroke-width="2" stroke-linecap="round" stroke-linejoin="round"/>
</svg>
