<svg width="28" height="28" viewBox="0 0 28 28" fill="none" xmlns="http://www.w3.org/2000/svg">
<path d="M16.625 3.5V9.625H22.75" stroke="#FAFAFB" stroke-width="2" stroke-linecap="round" stroke-linejoin="round"/>
<path d="M18.375 24.5H21.875C22.1071 24.5 22.3296 24.4078 22.4937 24.2437C22.6578 24.0796 22.75 23.8571 22.75 23.625V9.625L16.625 3.5H6.125C5.89294 3.5 5.67038 3.59219 5.50628 3.75628C5.34219 3.92038 5.25 4.14294 5.25 4.375V14" stroke="#FAFAFB" stroke-width="2" stroke-linecap="round" stroke-linejoin="round"/>
<path d="M5.25 22.3125V18.8125H7.875L10.5 16.625V24.5L7.875 22.3125H5.25Z" stroke="#FAFAFB" stroke-width="2" stroke-linecap="round" stroke-linejoin="round"/>
<path d="M14 17.8281C14.4104 18.156 14.7417 18.572 14.9693 19.0454C15.197 19.5187 15.3152 20.0372 15.3152 20.5625C15.3152 21.0878 15.197 21.6063 14.9693 22.0796C14.7417 22.553 14.4104 22.969 14 23.2969" stroke="#FAFAFB" stroke-width="2" stroke-linecap="round" stroke-linejoin="round"/>
</svg>
