<svg width="28" height="28" viewBox="0 0 28 28" fill="none" xmlns="http://www.w3.org/2000/svg">
<path d="M5.25 21.875H7C7.46413 21.875 7.90925 21.6906 8.23744 21.3624C8.56563 21.0342 8.75 20.5891 8.75 20.125C8.75 19.6609 8.56563 19.2158 8.23744 18.8876C7.90925 18.5594 7.46413 18.375 7 18.375H5.25V23.625" stroke="#FAFAFB" stroke-width="2" stroke-linecap="round" stroke-linejoin="round"/>
<path d="M12.25 21.875H14C14.4641 21.875 14.9092 21.6906 15.2374 21.3624C15.5656 21.0342 15.75 20.5891 15.75 20.125C15.75 19.6609 15.5656 19.2158 15.2374 18.8876C14.9092 18.5594 14.4641 18.375 14 18.375H12.25V23.625" stroke="#FAFAFB" stroke-width="2" stroke-linecap="round" stroke-linejoin="round"/>
<path d="M22.75 18.375H18.8125" stroke="#FAFAFB" stroke-width="2" stroke-linecap="round" stroke-linejoin="round"/>
<path d="M20.7812 23.625V18.375" stroke="#FAFAFB" stroke-width="2" stroke-linecap="round" stroke-linejoin="round"/>
<path d="M5.25 14V4.375C5.25 4.14294 5.34219 3.92038 5.50628 3.75628C5.67038 3.59219 5.89294 3.5 6.125 3.5H16.625L22.75 9.625V14" stroke="#FAFAFB" stroke-width="2" stroke-linecap="round" stroke-linejoin="round"/>
<path d="M16.625 3.5V9.625H22.75" stroke="#FAFAFB" stroke-width="2" stroke-linecap="round" stroke-linejoin="round"/>
</svg>
