<svg width="28" height="28" viewBox="0 0 28 28" fill="none" xmlns="http://www.w3.org/2000/svg">
<path d="M4.8125 21.875H6.5625C7.02663 21.875 7.47175 21.6906 7.79994 21.3624C8.12813 21.0342 8.3125 20.5891 8.3125 20.125C8.3125 19.6609 8.12813 19.2158 7.79994 18.8876C7.47175 18.5594 7.02663 18.375 6.5625 18.375H4.8125V23.625" stroke="#FAFAFB" stroke-width="2" stroke-linecap="round" stroke-linejoin="round"/>
<path d="M11.8125 23.625V18.375L15.75 23.625V18.375" stroke="#FAFAFB" stroke-width="2" stroke-linecap="round" stroke-linejoin="round"/>
<path d="M22.3125 21.2188H23.625V22.5094C23.4171 22.8459 23.1278 23.1246 22.7836 23.3196C22.4395 23.5146 22.0518 23.6196 21.6562 23.625C20.3219 23.625 19.25 22.4547 19.25 21C19.25 19.5453 20.3219 18.375 21.6562 18.375C22.128 18.3742 22.5877 18.5236 22.9688 18.8016" stroke="#FAFAFB" stroke-width="2" stroke-linecap="round" stroke-linejoin="round"/>
<path d="M5.25 14V4.375C5.25 4.14294 5.34219 3.92038 5.50628 3.75628C5.67038 3.59219 5.89294 3.5 6.125 3.5H16.625L22.75 9.625V14" stroke="#FAFAFB" stroke-width="2" stroke-linecap="round" stroke-linejoin="round"/>
<path d="M16.625 3.5V9.625H22.75" stroke="#FAFAFB" stroke-width="2" stroke-linecap="round" stroke-linejoin="round"/>
</svg>
