<svg width="28" height="28" viewBox="0 0 28 28" fill="none" xmlns="http://www.w3.org/2000/svg">
<path d="M11.375 21.875H13.125C13.5891 21.875 14.0342 21.6906 14.3624 21.3624C14.6906 21.0342 14.875 20.5891 14.875 20.125C14.875 19.6609 14.6906 19.2158 14.3624 18.8876C14.0342 18.5594 13.5891 18.375 13.125 18.375H11.375V23.625" stroke="#FAFAFB" stroke-width="2" stroke-linecap="round" stroke-linejoin="round"/>
<path d="M7.875 18.375V21.875C7.875 22.3391 7.69063 22.7842 7.36244 23.1124C7.03425 23.4406 6.58913 23.625 6.125 23.625C5.66087 23.625 5.21575 23.4406 4.88756 23.1124C4.55937 22.7842 4.375 22.3391 4.375 21.875" stroke="#FAFAFB" stroke-width="2" stroke-linecap="round" stroke-linejoin="round"/>
<path d="M20.5625 21.2188H21.875V22.5094C21.6671 22.8459 21.3778 23.1246 21.0336 23.3196C20.6895 23.5146 20.3018 23.6196 19.9062 23.625C18.5719 23.625 17.5 22.4547 17.5 21C17.5 19.5453 18.5719 18.375 19.9062 18.375C20.378 18.3742 20.8377 18.5236 21.2188 18.8016" stroke="#FAFAFB" stroke-width="2" stroke-linecap="round" stroke-linejoin="round"/>
<path d="M5.25 14V4.375C5.25 4.14294 5.34219 3.92038 5.50628 3.75628C5.67038 3.59219 5.89294 3.5 6.125 3.5H16.625L22.75 9.625V14" stroke="#FAFAFB" stroke-width="2" stroke-linecap="round" stroke-linejoin="round"/>
<path d="M16.625 3.5V9.625H22.75" stroke="#FAFAFB" stroke-width="2" stroke-linecap="round" stroke-linejoin="round"/>
</svg>
