<svg width="28" height="28" viewBox="0 0 28 28" fill="none" xmlns="http://www.w3.org/2000/svg">
<path d="M6.34375 23.625C7.03994 23.625 7.70762 23.3484 8.19991 22.8562C8.69219 22.3639 8.96875 21.6962 8.96875 21C8.96875 20.3038 8.69219 19.6361 8.19991 19.1438C7.70762 18.6516 7.03994 18.375 6.34375 18.375H4.8125V23.625H6.34375Z" stroke="#FAFAFB" stroke-width="1.5" stroke-linecap="round" stroke-linejoin="round"/>
<path d="M12 23.625L14.1875 18.375L16.375 23.625" stroke="#FAFAFB" stroke-width="1.5" stroke-linecap="round" stroke-linejoin="round"/>
<path d="M22.9375 18H19" stroke="#FAFAFB" stroke-width="1.5" stroke-linecap="round" stroke-linejoin="round"/>
<path d="M15.3 22.5H13" stroke="#FAFAFB" stroke-width="1.5" stroke-linecap="round" stroke-linejoin="round"/>
<path d="M20.9688 23.25V18" stroke="#FAFAFB" stroke-width="1.5" stroke-linecap="round" stroke-linejoin="round"/>
<path d="M5.25 14V4.375C5.25 4.14294 5.34219 3.92038 5.50628 3.75628C5.67038 3.59219 5.89294 3.5 6.125 3.5H16.625L22.75 9.625V14" stroke="#FAFAFB" stroke-width="2" stroke-linecap="round" stroke-linejoin="round"/>
<path d="M16.625 3.5V9.625H22.75" stroke="#FAFAFB" stroke-width="2" stroke-linecap="round" stroke-linejoin="round"/>
</svg>
