<svg width="28" height="28" viewBox="0 0 28 28" fill="none" xmlns="http://www.w3.org/2000/svg">
<path d="M7.875 18.375V21.875C7.875 22.3391 7.69063 22.7842 7.36244 23.1124C7.03425 23.4406 6.58913 23.625 6.125 23.625C5.66087 23.625 5.21575 23.4406 4.88756 23.1124C4.55937 22.7842 4.375 22.3391 4.375 21.875" stroke="#FAFAFB" stroke-width="2" stroke-linecap="round" stroke-linejoin="round"/>
<path d="M19.25 24.5H21.875C22.1071 24.5 22.3296 24.4078 22.4937 24.2437C22.6578 24.0796 22.75 23.8571 22.75 23.625V9.625L16.625 3.5H6.125C5.89294 3.5 5.67038 3.59219 5.50628 3.75628C5.34219 3.92038 5.25 4.14294 5.25 4.375V14" stroke="#FAFAFB" stroke-width="2" stroke-linecap="round" stroke-linejoin="round"/>
<path d="M11.375 23.1875C11.849 23.5411 12.4242 23.7328 13.0156 23.7344C14 23.7344 14.875 23.4062 14.875 22.3125C14.875 20.5625 11.375 21.3281 11.375 19.6875C11.375 18.8125 12.0312 18.2656 13.0156 18.2656C13.607 18.2672 14.1822 18.4589 14.6562 18.8125" stroke="#FAFAFB" stroke-width="2" stroke-linecap="round" stroke-linejoin="round"/>
<path d="M16.625 3.5V9.625H22.75" stroke="#FAFAFB" stroke-width="2" stroke-linecap="round" stroke-linejoin="round"/>
</svg>
