<svg width="28" height="28" viewBox="0 0 28 28" fill="none" xmlns="http://www.w3.org/2000/svg">
<path d="M6.34375 23.625C7.03994 23.625 7.70762 23.3484 8.19991 22.8562C8.69219 22.3639 8.96875 21.6962 8.96875 21C8.96875 20.3038 8.69219 19.6361 8.19991 19.1438C7.70762 18.6516 7.03994 18.375 6.34375 18.375H4.8125V23.625H6.34375Z" stroke="#FAFAFB" stroke-width="2" stroke-linecap="round" stroke-linejoin="round"/>
<path d="M14.2188 23.625C15.5477 23.625 16.625 22.4497 16.625 21C16.625 19.5503 15.5477 18.375 14.2188 18.375C12.8898 18.375 11.8125 19.5503 11.8125 21C11.8125 22.4497 12.8898 23.625 14.2188 23.625Z" stroke="#FAFAFB" stroke-width="2" stroke-linecap="round" stroke-linejoin="round"/>
<path d="M23.1875 23.0234C22.7689 23.4061 22.2234 23.6204 21.6562 23.625C20.3219 23.625 19.25 22.4547 19.25 21C19.25 19.5453 20.3219 18.375 21.6562 18.375C22.2234 18.3796 22.7689 18.5939 23.1875 18.9766" stroke="#FAFAFB" stroke-width="2" stroke-linecap="round" stroke-linejoin="round"/>
<path d="M5.25 14V4.375C5.25 4.14294 5.34219 3.92038 5.50628 3.75628C5.67038 3.59219 5.89294 3.5 6.125 3.5H16.625L22.75 9.625V14" stroke="#FAFAFB" stroke-width="2" stroke-linecap="round" stroke-linejoin="round"/>
<path d="M16.625 3.5V9.625H22.75" stroke="#FAFAFB" stroke-width="2" stroke-linecap="round" stroke-linejoin="round"/>
</svg>
