<svg width="28" height="28" viewBox="0 0 28 28" fill="none" xmlns="http://www.w3.org/2000/svg">
<path d="M21.875 24.5H6.125C5.89294 24.5 5.67038 24.4078 5.50628 24.2437C5.34219 24.0796 5.25 23.8571 5.25 23.625V4.375C5.25 4.14294 5.34219 3.92038 5.50628 3.75628C5.67038 3.59219 5.89294 3.5 6.125 3.5H16.625L22.75 9.625V23.625C22.75 23.8571 22.6578 24.0796 22.4937 24.2437C22.3296 24.4078 22.1071 24.5 21.875 24.5Z" stroke="#FAFAFB" stroke-width="2" stroke-linecap="round" stroke-linejoin="round"/>
<path d="M16.625 3.5V9.625H22.75" stroke="#FAFAFB" stroke-width="2" stroke-linecap="round" stroke-linejoin="round"/>
<path d="M15.7285 18.353L17.4785 20.103" stroke="#FAFAFB" stroke-width="2" stroke-linecap="round" stroke-linejoin="round"/>
<path d="M13.5625 19.25C15.2539 19.25 16.625 17.8789 16.625 16.1875C16.625 14.4961 15.2539 13.125 13.5625 13.125C11.8711 13.125 10.5 14.4961 10.5 16.1875C10.5 17.8789 11.8711 19.25 13.5625 19.25Z" stroke="#FAFAFB" stroke-width="2" stroke-linecap="round" stroke-linejoin="round"/>
</svg>
