<svg width="28" height="28" viewBox="0 0 28 28" fill="none" xmlns="http://www.w3.org/2000/svg">
<path d="M16.625 3.5V9.625H22.75" stroke="#FAFAFB" stroke-width="2" stroke-linecap="round" stroke-linejoin="round"/>
<path d="M19.25 24.5H21.875C22.1071 24.5 22.3296 24.4078 22.4937 24.2437C22.6578 24.0796 22.75 23.8571 22.75 23.625V9.625L16.625 3.5H6.125C5.89294 3.5 5.67038 3.59219 5.50628 3.75628C5.34219 3.92038 5.25 4.14294 5.25 4.375V14" stroke="#FAFAFB" stroke-width="2" stroke-linecap="round" stroke-linejoin="round"/>
<path d="M7.18594 18.375H6.5625C5.75027 18.375 4.97132 18.6977 4.39699 19.272C3.82266 19.8463 3.5 20.6253 3.5 21.4375C3.5 22.2497 3.82266 23.0287 4.39699 23.603C4.97132 24.1773 5.75027 24.5 6.5625 24.5H11.8125C12.7643 24.5 13.6948 24.2178 14.4862 23.6889C15.2776 23.1601 15.8944 22.4085 16.2587 21.5292C16.6229 20.6498 16.7182 19.6822 16.5325 18.7486C16.3468 17.8151 15.8885 16.9576 15.2155 16.2846C14.5424 15.6115 13.6849 15.1532 12.7514 14.9675C11.8178 14.7818 10.8502 14.8771 9.97084 15.2413C9.09147 15.6056 8.33986 16.2224 7.81105 17.0138C7.28225 17.8052 7 18.7357 7 19.6875" stroke="#FAFAFB" stroke-width="2" stroke-linecap="round" stroke-linejoin="round"/>
</svg>
