<svg width="28" height="28" viewBox="0 0 28 28" fill="none" xmlns="http://www.w3.org/2000/svg">
<path d="M9.1875 18.375H5.25" stroke="#FAFAFB" stroke-width="2" stroke-linecap="round" stroke-linejoin="round"/>
<path d="M7.21875 23.625V18.375" stroke="#FAFAFB" stroke-width="2" stroke-linecap="round" stroke-linejoin="round"/>
<path d="M12.25 23.1875C12.724 23.5411 13.2992 23.7328 13.8906 23.7344C14.875 23.7344 15.75 23.4062 15.75 22.3125C15.75 20.5625 12.25 21.3281 12.25 19.6875C12.25 18.8125 12.9062 18.2656 13.8906 18.2656C14.482 18.2672 15.0572 18.4589 15.5312 18.8125" stroke="#FAFAFB" stroke-width="2" stroke-linecap="round" stroke-linejoin="round"/>
<path d="M20.125 24.5H21.875C22.1071 24.5 22.3296 24.4078 22.4937 24.2437C22.6578 24.0796 22.75 23.8571 22.75 23.625V9.625L16.625 3.5H6.125C5.89294 3.5 5.67038 3.59219 5.50628 3.75628C5.34219 3.92038 5.25 4.14294 5.25 4.375V14" stroke="#FAFAFB" stroke-width="2" stroke-linecap="round" stroke-linejoin="round"/>
<path d="M16.625 3.5V9.625H22.75" stroke="#FAFAFB" stroke-width="2" stroke-linecap="round" stroke-linejoin="round"/>
</svg>
