<svg width="28" height="28" viewBox="0 0 28 28" fill="none" xmlns="http://www.w3.org/2000/svg">
<path d="M16.625 24.5L11.7359 17.1719C11.6975 17.1109 11.6443 17.0606 11.5811 17.0258C11.518 16.9909 11.4471 16.9727 11.375 16.9727C11.3029 16.9727 11.232 16.9909 11.1689 17.0258C11.1057 17.0606 11.0525 17.1109 11.0141 17.1719L8.72813 20.6063C8.68747 20.6666 8.63239 20.7159 8.5679 20.7496C8.5034 20.7833 8.43152 20.8004 8.35876 20.7993C8.28599 20.7982 8.21465 20.779 8.15119 20.7434C8.08773 20.7077 8.03415 20.6569 7.99531 20.5953L6.93438 18.9438C6.89333 18.8829 6.83795 18.833 6.77311 18.7985C6.70827 18.764 6.63595 18.7459 6.5625 18.7459C6.48905 18.7459 6.41673 18.764 6.35189 18.7985C6.28705 18.833 6.23167 18.8829 6.19062 18.9438L2.625 24.5H16.625Z" stroke="#FAFAFB" stroke-width="2" stroke-linecap="round" stroke-linejoin="round"/>
<path d="M16.625 3.5V9.625H22.75" stroke="#FAFAFB" stroke-width="2" stroke-linecap="round" stroke-linejoin="round"/>
<path d="M21 24.5H21.875C22.1071 24.5 22.3296 24.4078 22.4937 24.2437C22.6578 24.0796 22.75 23.8571 22.75 23.625V9.625L16.625 3.5H6.125C5.89294 3.5 5.67038 3.59219 5.50628 3.75628C5.34219 3.92038 5.25 4.14294 5.25 4.375V14.875" stroke="#FAFAFB" stroke-width="2" stroke-linecap="round" stroke-linejoin="round"/>
</svg>
