<svg width="28" height="28" viewBox="0 0 28 28" fill="none" xmlns="http://www.w3.org/2000/svg">
<path d="M13.125 18.375V23.625H16.1875" stroke="#FAFAFB" stroke-width="2" stroke-linecap="round" stroke-linejoin="round"/>
<path d="M5.6875 18.375L9.625 23.625" stroke="#FAFAFB" stroke-width="2" stroke-linecap="round" stroke-linejoin="round"/>
<path d="M9.625 18.375L5.6875 23.625" stroke="#FAFAFB" stroke-width="2" stroke-linecap="round" stroke-linejoin="round"/>
<path d="M19.25 23.1875C19.724 23.5411 20.2992 23.7328 20.8906 23.7344C21.875 23.7344 22.75 23.4062 22.75 22.3125C22.75 20.5625 19.25 21.3281 19.25 19.6875C19.25 18.8125 19.9062 18.2656 20.8906 18.2656C21.482 18.2672 22.0572 18.4589 22.5312 18.8125" stroke="#FAFAFB" stroke-width="2" stroke-linecap="round" stroke-linejoin="round"/>
<path d="M5.25 14V4.375C5.25 4.14294 5.34219 3.92038 5.50628 3.75628C5.67038 3.59219 5.89294 3.5 6.125 3.5H16.625L22.75 9.625V14" stroke="#FAFAFB" stroke-width="2" stroke-linecap="round" stroke-linejoin="round"/>
<path d="M16.625 3.5V9.625H22.75" stroke="#FAFAFB" stroke-width="2" stroke-linecap="round" stroke-linejoin="round"/>
</svg>
