<svg width="28" height="28" viewBox="0 0 28 28" fill="none" xmlns="http://www.w3.org/2000/svg">
<path d="M8.75 23.0234C8.33137 23.4061 7.78593 23.6204 7.21875 23.625C5.88438 23.625 4.8125 22.4547 4.8125 21C4.8125 19.5453 5.88438 18.375 7.21875 18.375C7.78593 18.3796 8.33137 18.5939 8.75 18.9766" stroke="#FAFAFB" stroke-width="2" stroke-linecap="round" stroke-linejoin="round"/>
<path d="M12.25 23.1875C12.724 23.5411 13.2992 23.7328 13.8906 23.7344C14.875 23.7344 15.75 23.4062 15.75 22.3125C15.75 20.5625 12.25 21.3281 12.25 19.6875C12.25 18.8125 12.9062 18.2656 13.8906 18.2656C14.482 18.2672 15.0572 18.4589 15.5312 18.8125" stroke="#FAFAFB" stroke-width="2" stroke-linecap="round" stroke-linejoin="round"/>
<path d="M19.25 23.1875C19.724 23.5411 20.2992 23.7328 20.8906 23.7344C21.875 23.7344 22.75 23.4062 22.75 22.3125C22.75 20.5625 19.25 21.3281 19.25 19.6875C19.25 18.8125 19.9062 18.2656 20.8906 18.2656C21.482 18.2672 22.0572 18.4589 22.5312 18.8125" stroke="#FAFAFB" stroke-width="2" stroke-linecap="round" stroke-linejoin="round"/>
<path d="M5.25 14V4.375C5.25 4.14294 5.34219 3.92038 5.50628 3.75628C5.67038 3.59219 5.89294 3.5 6.125 3.5H16.625L22.75 9.625V14" stroke="#FAFAFB" stroke-width="2" stroke-linecap="round" stroke-linejoin="round"/>
<path d="M16.625 3.5V9.625H22.75" stroke="#FAFAFB" stroke-width="2" stroke-linecap="round" stroke-linejoin="round"/>
</svg>
