<svg width="28" height="28" viewBox="0 0 28 28" fill="none" xmlns="http://www.w3.org/2000/svg">
<path d="M5.54492 20.2234C6.50544 18.2897 7.00343 16.1592 6.99961 14C7.00052 12.9502 7.23682 11.914 7.6911 10.9675C8.14538 10.0211 8.80609 9.1886 9.62461 8.53125" stroke="#FAFAFB" stroke-width="2" stroke-linecap="round" stroke-linejoin="round"/>
<path d="M14 14C14.0047 17.5587 13.1012 21.0598 11.375 24.1719" stroke="#FAFAFB" stroke-width="2" stroke-linecap="round" stroke-linejoin="round"/>
<path d="M10.5 14C10.5 13.0717 10.8687 12.1815 11.5251 11.5251C12.1815 10.8687 13.0717 10.5 14 10.5C14.9283 10.5 15.8185 10.8687 16.4749 11.5251C17.1312 12.1815 17.5 13.0717 17.5 14C17.5072 17.6079 16.7114 21.1722 15.1703 24.4344" stroke="#FAFAFB" stroke-width="2" stroke-linecap="round" stroke-linejoin="round"/>
<path d="M23.9094 20.125C24.3012 18.1069 24.499 16.0558 24.5 14C24.5 11.2152 23.3938 8.54451 21.4246 6.57538C19.4555 4.60625 16.7848 3.5 14 3.5C11.2152 3.5 8.54451 4.60625 6.57538 6.57538C4.60625 8.54451 3.5 11.2152 3.5 14C3.50313 15.1927 3.2996 16.3768 2.89844 17.5" stroke="#FAFAFB" stroke-width="2" stroke-linecap="round" stroke-linejoin="round"/>
<path d="M10.1496 17.5C9.77181 19.3403 9.10356 21.1088 8.16992 22.7391" stroke="#FAFAFB" stroke-width="2" stroke-linecap="round" stroke-linejoin="round"/>
<path d="M13.125 7.05469C13.4154 7.01978 13.7075 7.00153 14 7C15.8565 7 17.637 7.7375 18.9497 9.05025C20.2625 10.363 21 12.1435 21 14C20.999 15.1701 20.9259 16.3389 20.7812 17.5" stroke="#FAFAFB" stroke-width="2" stroke-linecap="round" stroke-linejoin="round"/>
<path d="M20.1145 21C19.9504 21.6453 19.7645 22.2906 19.5566 22.9141" stroke="#FAFAFB" stroke-width="2" stroke-linecap="round" stroke-linejoin="round"/>
</svg>
