<svg width="28" height="28" viewBox="0 0 28 28" fill="none" xmlns="http://www.w3.org/2000/svg">
<path d="M19.2498 14C19.2525 17.4207 18.5875 20.8091 17.292 23.975" stroke="#FAFAFB" stroke-width="2" stroke-linecap="round" stroke-linejoin="round"/>
<path d="M17.9156 10.5001C17.207 9.70669 16.274 9.14726 15.2403 8.89593C14.2066 8.6446 13.121 8.71324 12.1271 9.09274C11.1333 9.47224 10.2782 10.1447 9.67514 11.0211C9.07206 11.8974 8.74943 12.9363 8.75 14.0001C8.75651 16.6678 8.07866 19.2926 6.78125 21.6236" stroke="#FAFAFB" stroke-width="2" stroke-linecap="round" stroke-linejoin="round"/>
<path d="M10.5 4.1016C11.6232 3.70044 12.8073 3.49691 14 3.50004C16.7848 3.50004 19.4555 4.60628 21.4246 6.57541C23.3938 8.54455 24.5 11.2153 24.5 14C24.4988 16.3548 24.2384 18.7023 23.7234 21" stroke="#FAFAFB" stroke-width="2" stroke-linecap="round" stroke-linejoin="round"/>
<path d="M2.54883 18.375C3.17851 17.0026 3.50316 15.51 3.50039 14C3.49916 12.5234 3.81037 11.0632 4.41359 9.71533C5.01681 8.36751 5.89838 7.16258 7.00039 6.17969" stroke="#FAFAFB" stroke-width="2" stroke-linecap="round" stroke-linejoin="round"/>
<path d="M12.0969 22.75C11.8781 23.2313 11.6375 23.7125 11.375 24.1719" stroke="#FAFAFB" stroke-width="2" stroke-linecap="round" stroke-linejoin="round"/>
<path d="M14.0002 14C14.0029 15.7713 13.7787 17.5357 13.333 19.25" stroke="#FAFAFB" stroke-width="2" stroke-linecap="round" stroke-linejoin="round"/>
</svg>
