<svg width="28" height="28" viewBox="0 0 28 28" fill="none" xmlns="http://www.w3.org/2000/svg">
<path d="M4.37501 9.98594V22.75C4.37501 22.9821 4.46719 23.2046 4.63129 23.3687C4.79538 23.5328 5.01794 23.625 5.25001 23.625H22.75C22.9821 23.625 23.2046 23.5328 23.3687 23.3687C23.5328 23.2046 23.625 22.9821 23.625 22.75V5.25001C23.625 5.01794 23.5328 4.79538 23.3687 4.63129C23.2046 4.46719 22.9821 4.37501 22.75 4.37501H9.98594C9.87232 4.37461 9.75974 4.39662 9.65464 4.43979C9.54954 4.48295 9.45398 4.54643 9.37344 4.62657L4.62657 9.37344C4.54643 9.45398 4.48295 9.54954 4.43979 9.65464C4.39662 9.75974 4.37461 9.87232 4.37501 9.98594V9.98594Z" stroke="#FAFAFB" stroke-width="2" stroke-linecap="round" stroke-linejoin="round"/>
<path d="M14 19.25C15.6914 19.25 17.0625 17.8789 17.0625 16.1875C17.0625 14.4961 15.6914 13.125 14 13.125C12.3086 13.125 10.9375 14.4961 10.9375 16.1875C10.9375 17.8789 12.3086 19.25 14 19.25Z" stroke="#FAFAFB" stroke-width="2" stroke-linecap="round" stroke-linejoin="round"/>
<path d="M10.5 8.75H17.5V4.375" stroke="#FAFAFB" stroke-width="2" stroke-linecap="round" stroke-linejoin="round"/>
</svg>
