<svg width="28" height="28" viewBox="0 0 28 28" fill="none" xmlns="http://www.w3.org/2000/svg">
<path d="M23.625 9.98594V22.75C23.625 22.9821 23.5328 23.2046 23.3687 23.3687C23.2046 23.5328 22.9821 23.625 22.75 23.625H5.25C5.01794 23.625 4.79538 23.5328 4.63128 23.3687C4.46719 23.2046 4.375 22.9821 4.375 22.75V5.25001C4.375 5.01794 4.46719 4.79538 4.63128 4.63129C4.79538 4.46719 5.01794 4.37501 5.25 4.37501H18.0141C18.1277 4.37461 18.2403 4.39662 18.3454 4.43979C18.4505 4.48295 18.546 4.54643 18.6266 4.62657L23.3734 9.37344C23.4536 9.45398 23.5171 9.54954 23.5602 9.65464C23.6034 9.75974 23.6254 9.87232 23.625 9.98594V9.98594Z" stroke="#FAFAFB" stroke-width="2" stroke-linecap="round" stroke-linejoin="round"/>
<path d="M8.75 23.625V16.625C8.75 16.3929 8.84219 16.1704 9.00628 16.0063C9.17038 15.8422 9.39294 15.75 9.625 15.75H18.375C18.6071 15.75 18.8296 15.8422 18.9937 16.0063C19.1578 16.1704 19.25 16.3929 19.25 16.625V23.625" stroke="#FAFAFB" stroke-width="2" stroke-linecap="round" stroke-linejoin="round"/>
<path d="M16.625 7.875H10.5" stroke="#FAFAFB" stroke-width="2" stroke-linecap="round" stroke-linejoin="round"/>
</svg>
