<svg width="28" height="28" viewBox="0 0 28 28" fill="none" xmlns="http://www.w3.org/2000/svg">
<path d="M3.5 22.75V7C3.5 6.76794 3.59219 6.54538 3.75628 6.38128C3.92038 6.21719 4.14294 6.125 4.375 6.125H10.2047C10.3939 6.12578 10.5779 6.1871 10.7297 6.3L13.7703 8.575C13.9221 8.6879 14.1061 8.74922 14.2953 8.75H21.875C22.1071 8.75 22.3296 8.84219 22.4937 9.00628C22.6578 9.17038 22.75 9.39294 22.75 9.625V12.25" stroke="#FAFAFB" stroke-width="2" stroke-linecap="round" stroke-linejoin="round"/>
<path d="M3.5 22.75L6.80313 12.8516C6.8607 12.6765 6.97206 12.5242 7.12132 12.4161C7.27058 12.3081 7.45013 12.25 7.63438 12.25H25.0359C25.1743 12.25 25.3107 12.2828 25.4339 12.3457C25.5571 12.4086 25.6637 12.4999 25.7448 12.612C25.8259 12.724 25.8793 12.8538 25.9006 12.9905C25.9219 13.1272 25.9104 13.267 25.8672 13.3984L22.75 22.75H3.5Z" stroke="#FAFAFB" stroke-width="2" stroke-linecap="round" stroke-linejoin="round"/>
</svg>
