<svg width="28" height="28" viewBox="0 0 28 28" fill="none" xmlns="http://www.w3.org/2000/svg">
<path d="M13.125 22.75H4.375C4.14294 22.75 3.92038 22.6578 3.75628 22.4937C3.59219 22.3296 3.5 22.1071 3.5 21.875V7C3.5 6.76794 3.59219 6.54538 3.75628 6.38128C3.92038 6.21719 4.14294 6.125 4.375 6.125H10.2047C10.3939 6.12578 10.5779 6.1871 10.7297 6.3L13.7703 8.575C13.9221 8.6879 14.1061 8.74922 14.2953 8.75H23.625C23.8571 8.75 24.0796 8.84219 24.2437 9.00628C24.4078 9.17038 24.5 9.39294 24.5 9.625V13.125" stroke="#FAFAFB" stroke-width="2" stroke-linecap="round" stroke-linejoin="round"/>
<path d="M20.5625 21.7109L23.8109 23.625L22.925 20.0594L25.8125 17.675L22.0172 17.3797L20.5625 14L19.1078 17.3797L15.3125 17.675L18.2 20.0594L17.3141 23.625L20.5625 21.7109Z" stroke="#FAFAFB" stroke-width="2" stroke-linecap="round" stroke-linejoin="round"/>
</svg>
