<svg width="28" height="28" viewBox="0 0 28 28" fill="none" xmlns="http://www.w3.org/2000/svg">
<path d="M21.875 12.25V21.9734C21.875 22.1794 21.7932 22.3769 21.6475 22.5225C21.5019 22.6682 21.3044 22.75 21.0984 22.75H4.375C4.14294 22.75 3.92038 22.6578 3.75628 22.4937C3.59219 22.3296 3.5 22.1071 3.5 21.875V9.625C3.5 9.39294 3.59219 9.17038 3.75628 9.00628C3.92038 8.84219 4.14294 8.75 4.375 8.75H9.32969C9.51888 8.75078 9.70286 8.8121 9.85469 8.925L12.8953 11.2C13.0471 11.3129 13.2311 11.3742 13.4203 11.375H21C21.2321 11.375 21.4546 11.4672 21.6187 11.6313C21.7828 11.7954 21.875 12.0179 21.875 12.25Z" stroke="#FAFAFB" stroke-width="2" stroke-linecap="round" stroke-linejoin="round"/>
<path d="M21.875 12.25V21.9734C21.875 22.1794 21.7932 22.3769 21.6475 22.5225C21.5019 22.6682 21.3044 22.75 21.0984 22.75H4.375C4.14294 22.75 3.92038 22.6578 3.75628 22.4937C3.59219 22.3296 3.5 22.1071 3.5 21.875V9.625C3.5 9.39294 3.59219 9.17038 3.75628 9.00628C3.92038 8.84219 4.14294 8.75 4.375 8.75H9.32969C9.51888 8.75078 9.70286 8.8121 9.85469 8.925L12.8953 11.2C13.0471 11.3129 13.2311 11.3742 13.4203 11.375H21C21.2321 11.375 21.4546 11.4672 21.6187 11.6313C21.7828 11.7954 21.875 12.0179 21.875 12.25Z" stroke="#FAFAFB" stroke-width="2" stroke-linecap="round" stroke-linejoin="round"/>
<path d="M7 8.75V6.125C7 5.89294 7.09219 5.67038 7.25628 5.50628C7.42038 5.34219 7.64294 5.25 7.875 5.25H12.8297C13.0189 5.25078 13.2029 5.3121 13.3547 5.425L16.3953 7.7C16.5471 7.8129 16.7311 7.87422 16.9203 7.875H24.5C24.7321 7.875 24.9546 7.96719 25.1187 8.13128C25.2828 8.29538 25.375 8.51794 25.375 8.75V18.4734C25.375 18.6794 25.2932 18.8769 25.1475 19.0225C25.0019 19.1682 24.8044 19.25 24.5984 19.25H21.875" stroke="#FAFAFB" stroke-width="2" stroke-linecap="round" stroke-linejoin="round"/>
</svg>
