<svg width="28" height="28" viewBox="0 0 28 28" fill="none" xmlns="http://www.w3.org/2000/svg">
<path d="M20.5625 21.4375C22.0122 21.4375 23.1875 20.2622 23.1875 18.8125C23.1875 17.3628 22.0122 16.1875 20.5625 16.1875C19.1128 16.1875 17.9375 17.3628 17.9375 18.8125C17.9375 20.2622 19.1128 21.4375 20.5625 21.4375Z" stroke="#FAFAFB" stroke-width="2" stroke-linecap="round" stroke-linejoin="round"/>
<path d="M17.1719 24.0625C17.3646 23.3097 17.8025 22.6424 18.4164 22.1658C19.0303 21.6893 19.7854 21.4307 20.5625 21.4307C21.3396 21.4307 22.0947 21.6893 22.7086 22.1658C23.3225 22.6424 23.7604 23.3097 23.9531 24.0625" stroke="#FAFAFB" stroke-width="2" stroke-linecap="round" stroke-linejoin="round"/>
<path d="M13.125 22.75H4.375C4.14294 22.75 3.92038 22.6578 3.75628 22.4937C3.59219 22.3296 3.5 22.1071 3.5 21.875V7C3.5 6.76794 3.59219 6.54538 3.75628 6.38128C3.92038 6.21719 4.14294 6.125 4.375 6.125H10.2047C10.3939 6.12578 10.5779 6.1871 10.7297 6.3L13.7703 8.575C13.9221 8.6879 14.1061 8.74922 14.2953 8.75H23.625C23.8571 8.75 24.0796 8.84219 24.2437 9.00628C24.4078 9.17038 24.5 9.39294 24.5 9.625V13.125" stroke="#FAFAFB" stroke-width="2" stroke-linecap="round" stroke-linejoin="round"/>
</svg>
