<svg width="28" height="28" viewBox="0 0 28 28" fill="none" xmlns="http://www.w3.org/2000/svg">
<path d="M14 8.75H23.625C23.8571 8.75 24.0796 8.84219 24.2437 9.00628C24.4078 9.17038 24.5 9.39294 24.5 9.625V21.875C24.5 22.1071 24.4078 22.3296 24.2437 22.4937C24.0796 22.6578 23.8571 22.75 23.625 22.75H4.375C4.14294 22.75 3.92038 22.6578 3.75628 22.4937C3.59219 22.3296 3.5 22.1071 3.5 21.875V11.375" stroke="#FAFAFB" stroke-width="2" stroke-linecap="round" stroke-linejoin="round"/>
<path d="M10.2047 11.375H3.5V7C3.5 6.76794 3.59219 6.54538 3.75628 6.38128C3.92038 6.21719 4.14294 6.125 4.375 6.125H10.2047C10.3939 6.12578 10.5779 6.1871 10.7297 6.3L14 8.75L10.7297 11.2C10.5779 11.3129 10.3939 11.3742 10.2047 11.375V11.375Z" stroke="#FAFAFB" stroke-width="2" stroke-linecap="round" stroke-linejoin="round"/>
</svg>
