<svg width="28" height="28" viewBox="0 0 28 28" fill="none" xmlns="http://www.w3.org/2000/svg">
<path d="M3.5 8.75001V6.12501C3.5 5.89294 3.59219 5.67038 3.75628 5.50629C3.92038 5.34219 4.14294 5.25001 4.375 5.25001H10.1391C10.2527 5.24961 10.3653 5.27162 10.4704 5.31479C10.5755 5.35795 10.671 5.42143 10.7516 5.50157L14 8.75001" stroke="#FAFAFB" stroke-width="2" stroke-linecap="round" stroke-linejoin="round"/>
<path d="M24.5 17.9375H16.625V22.75H24.5V17.9375Z" stroke="#FAFAFB" stroke-width="2" stroke-linecap="round" stroke-linejoin="round"/>
<path d="M12.3156 22.75H4.30938C4.20309 22.75 4.09784 22.7291 3.99964 22.6884C3.90144 22.6477 3.81222 22.5881 3.73706 22.5129C3.6619 22.4378 3.60228 22.3486 3.56161 22.2504C3.52093 22.1522 3.5 22.0469 3.5 21.9406V8.75H23.625C23.8571 8.75 24.0796 8.84219 24.2437 9.00628C24.4078 9.17038 24.5 9.39294 24.5 9.625V11.375" stroke="#FAFAFB" stroke-width="2" stroke-linecap="round" stroke-linejoin="round"/>
<path d="M18.375 17.9375V16.625C18.375 16.0448 18.6055 15.4884 19.0157 15.0782C19.4259 14.668 19.9823 14.4375 20.5625 14.4375C21.1427 14.4375 21.6991 14.668 22.1093 15.0782C22.5195 15.4884 22.75 16.0448 22.75 16.625V17.9375" stroke="#FAFAFB" stroke-width="2" stroke-linecap="round" stroke-linejoin="round"/>
</svg>
