<svg width="28" height="28" viewBox="0 0 28 28" fill="none" xmlns="http://www.w3.org/2000/svg">
<path d="M9.625 22.75H4.30938C4.20309 22.75 4.09784 22.7291 3.99964 22.6884C3.90144 22.6477 3.81222 22.5881 3.73706 22.5129C3.6619 22.4378 3.60228 22.3486 3.56161 22.2504C3.52093 22.1522 3.5 22.0469 3.5 21.9406V21" stroke="#FAFAFB" stroke-width="2" stroke-linecap="round" stroke-linejoin="round"/>
<path d="M17.5 22.75H14" stroke="#FAFAFB" stroke-width="2" stroke-linecap="round" stroke-linejoin="round"/>
<path d="M24.5 16.625V21.9734C24.5 22.1794 24.4182 22.3769 24.2725 22.5225C24.1269 22.6682 23.9294 22.75 23.7234 22.75H21.875" stroke="#FAFAFB" stroke-width="2" stroke-linecap="round" stroke-linejoin="round"/>
<path d="M18.375 8.75H23.625C23.8571 8.75 24.0796 8.84219 24.2437 9.00628C24.4078 9.17038 24.5 9.39294 24.5 9.625V12.25" stroke="#FAFAFB" stroke-width="2" stroke-linecap="round" stroke-linejoin="round"/>
<path d="M3.5 8.75001V6.12501C3.5 5.89294 3.59219 5.67038 3.75628 5.50629C3.92038 5.34219 4.14294 5.25001 4.375 5.25001H10.1391C10.2527 5.24961 10.3653 5.27162 10.4704 5.31479C10.5755 5.35795 10.671 5.42143 10.7516 5.50157L14 8.75001H3.5Z" stroke="#FAFAFB" stroke-width="2" stroke-linecap="round" stroke-linejoin="round"/>
<path d="M3.5 13.125V16.625" stroke="#FAFAFB" stroke-width="2" stroke-linecap="round" stroke-linejoin="round"/>
</svg>
