<svg width="28" height="28" viewBox="0 0 28 28" fill="none" xmlns="http://www.w3.org/2000/svg">
<path d="M4.60421 5.25H23.3948C23.5646 5.25005 23.7306 5.29947 23.8727 5.39222C24.0149 5.48498 24.127 5.61707 24.1954 5.7724C24.2638 5.92774 24.2855 6.09961 24.2579 6.26708C24.2304 6.43456 24.1547 6.5904 24.0402 6.71563L16.8542 14.6234C16.7047 14.7835 16.6224 14.995 16.6245 15.2141V21.4047C16.6259 21.5501 16.5905 21.6935 16.5216 21.8216C16.4528 21.9497 16.3528 22.0584 16.2308 22.1375L12.7308 24.4672C12.5995 24.5537 12.4473 24.6032 12.2903 24.6105C12.1333 24.6178 11.9771 24.5827 11.8384 24.5089C11.6996 24.435 11.5833 24.3251 11.5017 24.1907C11.42 24.0564 11.3761 23.9025 11.3745 23.7453V15.2141C11.3766 14.995 11.2944 14.7835 11.1448 14.6234L3.9589 6.71563C3.84434 6.5904 3.76867 6.43456 3.74111 6.26708C3.71355 6.09961 3.73529 5.92774 3.80368 5.7724C3.87207 5.61707 3.98417 5.48498 4.12631 5.39222C4.26844 5.29947 4.43449 5.25005 4.60421 5.25V5.25Z" stroke="#FAFAFB" stroke-width="2" stroke-linecap="round" stroke-linejoin="round"/>
</svg>
