<svg width="28" height="28" viewBox="0 0 28 28" fill="none" xmlns="http://www.w3.org/2000/svg">
<path d="M21.4375 23.625C23.1289 23.625 24.5 22.2539 24.5 20.5625C24.5 18.8711 23.1289 17.5 21.4375 17.5C19.7461 17.5 18.375 18.8711 18.375 20.5625C18.375 22.2539 19.7461 23.625 21.4375 23.625Z" stroke="#FAFAFB" stroke-width="2" stroke-linecap="round" stroke-linejoin="round"/>
<path d="M21.4375 17.5V13.1141C21.4356 11.7193 20.8811 10.3821 19.8953 9.39531L15.75 5.25" stroke="#FAFAFB" stroke-width="2" stroke-linecap="round" stroke-linejoin="round"/>
<path d="M15.75 9.625V5.25H20.125" stroke="#FAFAFB" stroke-width="2" stroke-linecap="round" stroke-linejoin="round"/>
<path d="M6.5625 10.5C8.25387 10.5 9.625 9.12887 9.625 7.4375C9.625 5.74613 8.25387 4.375 6.5625 4.375C4.87113 4.375 3.5 5.74613 3.5 7.4375C3.5 9.12887 4.87113 10.5 6.5625 10.5Z" stroke="#FAFAFB" stroke-width="2" stroke-linecap="round" stroke-linejoin="round"/>
<path d="M6.5625 10.5V14.8859C6.56438 16.2807 7.11893 17.6179 8.10469 18.6047L12.25 22.75" stroke="#FAFAFB" stroke-width="2" stroke-linecap="round" stroke-linejoin="round"/>
<path d="M12.25 18.375V22.75H7.875" stroke="#FAFAFB" stroke-width="2" stroke-linecap="round" stroke-linejoin="round"/>
</svg>
