<svg width="28" height="28" viewBox="0 0 28 28" fill="none" xmlns="http://www.w3.org/2000/svg">
<path d="M14 23.625C15.6914 23.625 17.0625 22.2539 17.0625 20.5625C17.0625 18.8711 15.6914 17.5 14 17.5C12.3086 17.5 10.9375 18.8711 10.9375 20.5625C10.9375 22.2539 12.3086 23.625 14 23.625Z" stroke="#FAFAFB" stroke-width="2" stroke-linecap="round" stroke-linejoin="round"/>
<path d="M20.5625 10.5C22.2539 10.5 23.625 9.12887 23.625 7.4375C23.625 5.74613 22.2539 4.375 20.5625 4.375C18.8711 4.375 17.5 5.74613 17.5 7.4375C17.5 9.12887 18.8711 10.5 20.5625 10.5Z" stroke="#FAFAFB" stroke-width="2" stroke-linecap="round" stroke-linejoin="round"/>
<path d="M7.4375 10.5C9.12887 10.5 10.5 9.12887 10.5 7.4375C10.5 5.74613 9.12887 4.375 7.4375 4.375C5.74613 4.375 4.375 5.74613 4.375 7.4375C4.375 9.12887 5.74613 10.5 7.4375 10.5Z" stroke="#FAFAFB" stroke-width="2" stroke-linecap="round" stroke-linejoin="round"/>
<path d="M7.43752 10.5V11.375C7.43608 11.7201 7.50299 12.0621 7.63439 12.3813C7.7658 12.7004 7.9591 12.9903 8.20314 13.2344C8.44718 13.4784 8.73714 13.6717 9.05627 13.8031C9.3754 13.9345 9.7174 14.0014 10.0625 14H17.9375C18.2826 14.0014 18.6246 13.9345 18.9438 13.8031C19.2629 13.6717 19.5529 13.4784 19.7969 13.2344C20.0409 12.9903 20.2342 12.7004 20.3657 12.3813C20.4971 12.0621 20.564 11.7201 20.5625 11.375V10.5" stroke="#FAFAFB" stroke-width="2" stroke-linecap="round" stroke-linejoin="round"/>
<path d="M14 14V17.5" stroke="#FAFAFB" stroke-width="2" stroke-linecap="round" stroke-linejoin="round"/>
</svg>
