<svg width="28" height="28" viewBox="0 0 28 28" fill="none" xmlns="http://www.w3.org/2000/svg">
<path d="M9.07812 12.2498H18.9219L21.3937 5.6545C21.4268 5.56817 21.4864 5.49453 21.5639 5.44416C21.6415 5.39379 21.733 5.36928 21.8253 5.37414C21.9176 5.379 22.006 5.41298 22.0778 5.47121C22.1496 5.52944 22.2012 5.60892 22.225 5.69825L25.2219 16.9092C25.264 17.083 25.2531 17.2654 25.1908 17.433C25.1284 17.6007 25.0173 17.7458 24.8719 17.8498L14.5031 25.0248C14.3552 25.1269 14.1797 25.1815 14 25.1815C13.8203 25.1815 13.6448 25.1269 13.4969 25.0248L3.12812 17.8498C2.98265 17.7458 2.8716 17.6007 2.80923 17.433C2.74687 17.2654 2.73603 17.083 2.77812 16.9092L5.775 5.69825C5.79883 5.60892 5.85035 5.52944 5.92216 5.47121C5.99398 5.41298 6.08239 5.379 6.17472 5.37414C6.26704 5.36928 6.35853 5.39379 6.43606 5.44416C6.51359 5.49453 6.57317 5.56817 6.60625 5.6545L9.07812 12.2498Z" stroke="#FAFAFB" stroke-width="2" stroke-linecap="round" stroke-linejoin="round"/>
<path d="M14.0762 25.1781L18.9215 12.25H23.9746" stroke="#FAFAFB" stroke-width="2" stroke-linecap="round" stroke-linejoin="round"/>
<path d="M4.02539 12.25H9.07852L13.9238 25.1781" stroke="#FAFAFB" stroke-width="2" stroke-linecap="round" stroke-linejoin="round"/>
</svg>
