<svg width="28" height="28" viewBox="0 0 28 28" fill="none" xmlns="http://www.w3.org/2000/svg">
<path d="M7.4375 23.625C9.12887 23.625 10.5 22.2539 10.5 20.5625C10.5 18.8711 9.12887 17.5 7.4375 17.5C5.74613 17.5 4.375 18.8711 4.375 20.5625C4.375 22.2539 5.74613 23.625 7.4375 23.625Z" stroke="#FAFAFB" stroke-width="2" stroke-linecap="round" stroke-linejoin="round"/>
<path d="M7.4375 10.5C9.12887 10.5 10.5 9.12887 10.5 7.4375C10.5 5.74613 9.12887 4.375 7.4375 4.375C5.74613 4.375 4.375 5.74613 4.375 7.4375C4.375 9.12887 5.74613 10.5 7.4375 10.5Z" stroke="#FAFAFB" stroke-width="2" stroke-linecap="round" stroke-linejoin="round"/>
<path d="M7.4375 10.5V17.5" stroke="#FAFAFB" stroke-width="2" stroke-linecap="round" stroke-linejoin="round"/>
<path d="M20.5625 23.625C22.2539 23.625 23.625 22.2539 23.625 20.5625C23.625 18.8711 22.2539 17.5 20.5625 17.5C18.8711 17.5 17.5 18.8711 17.5 20.5625C17.5 22.2539 18.8711 23.625 20.5625 23.625Z" stroke="#FAFAFB" stroke-width="2" stroke-linecap="round" stroke-linejoin="round"/>
<path d="M20.5625 17.5V13.1141C20.5606 11.7193 20.0061 10.3821 19.0203 9.39531L14.875 5.25" stroke="#FAFAFB" stroke-width="2" stroke-linecap="round" stroke-linejoin="round"/>
<path d="M14.875 9.625V5.25H19.25" stroke="#FAFAFB" stroke-width="2" stroke-linecap="round" stroke-linejoin="round"/>
</svg>
