<svg width="28" height="28" viewBox="0 0 28 28" fill="none" xmlns="http://www.w3.org/2000/svg">
<path d="M14.4375 14.4375V2.625C15.8149 2.625 17.1573 3.05837 18.2747 3.86372C19.392 4.66908 20.2277 5.80558 20.6632 7.11226C21.0988 8.41893 21.1122 9.82952 20.7015 11.1442C20.2908 12.4589 19.4769 13.6111 18.375 14.4375" stroke="#FAFAFB" stroke-width="2" stroke-linecap="round" stroke-linejoin="round"/>
<path d="M14.4375 13.5625H2.625C2.625 12.1851 3.05837 10.8427 3.86372 9.72534C4.66908 8.60797 5.80558 7.77232 7.11226 7.33677C8.41893 6.90121 9.82952 6.88782 11.1442 7.2985C12.4589 7.70919 13.6111 8.52312 14.4375 9.625" stroke="#FAFAFB" stroke-width="2" stroke-linecap="round" stroke-linejoin="round"/>
<path d="M13.5625 13.5625V25.375C12.1851 25.375 10.8427 24.9416 9.72534 24.1363C8.60797 23.3309 7.77232 22.1944 7.33677 20.8877C6.90121 19.5811 6.88782 18.1705 7.2985 16.8558C7.70919 15.5411 8.52312 14.3889 9.625 13.5625" stroke="#FAFAFB" stroke-width="2" stroke-linecap="round" stroke-linejoin="round"/>
<path d="M13.5625 14.4375H25.375C25.375 15.8149 24.9416 17.1573 24.1363 18.2747C23.3309 19.392 22.1944 20.2277 20.8877 20.6632C19.5811 21.0988 18.1705 21.1122 16.8558 20.7015C15.5411 20.2908 14.3889 19.4769 13.5625 18.375" stroke="#FAFAFB" stroke-width="2" stroke-linecap="round" stroke-linejoin="round"/>
</svg>
