<svg width="28" height="28" viewBox="0 0 28 28" fill="none" xmlns="http://www.w3.org/2000/svg">
<path d="M4.35352 24.5109C4.35485 24.6649 4.39682 24.8158 4.47518 24.9484C4.55355 25.0811 4.66553 25.1906 4.7998 25.2661C4.93408 25.3416 5.0859 25.3802 5.23992 25.3782C5.39394 25.3762 5.54469 25.3336 5.67695 25.2546L24.0301 14.7437C24.1651 14.672 24.278 14.5649 24.3568 14.4338C24.4355 14.3028 24.4772 14.1528 24.4772 13.9999C24.4772 13.8471 24.4355 13.6971 24.3568 13.566C24.278 13.435 24.1651 13.3279 24.0301 13.2562L5.67695 2.74525C5.54469 2.6663 5.39394 2.62367 5.23992 2.62166C5.0859 2.61964 4.93408 2.65832 4.7998 2.73379C4.66553 2.80925 4.55355 2.91882 4.47518 3.05143C4.39682 3.18403 4.35485 3.33498 4.35352 3.489V24.5109Z" stroke="#FAFAFB" stroke-width="2" stroke-linecap="round" stroke-linejoin="round"/>
<path d="M4.61523 2.86572L19.2387 17.4892" stroke="#FAFAFB" stroke-width="2" stroke-linecap="round" stroke-linejoin="round"/>
<path d="M4.61523 25.1342L19.2387 10.5107" stroke="#FAFAFB" stroke-width="2" stroke-linecap="round" stroke-linejoin="round"/>
</svg>
