<svg width="28" height="28" viewBox="0 0 28 28" fill="none" xmlns="http://www.w3.org/2000/svg">
<path d="M14 18.375C16.4162 18.375 18.375 16.4162 18.375 14C18.375 11.5838 16.4162 9.625 14 9.625C11.5838 9.625 9.625 11.5838 9.625 14C9.625 16.4162 11.5838 18.375 14 18.375Z" stroke="#FAFAFB" stroke-width="2" stroke-miterlimit="10"/>
<path d="M18.8125 3.9375H9.1875C6.28801 3.9375 3.9375 6.28801 3.9375 9.1875V18.8125C3.9375 21.712 6.28801 24.0625 9.1875 24.0625H18.8125C21.712 24.0625 24.0625 21.712 24.0625 18.8125V9.1875C24.0625 6.28801 21.712 3.9375 18.8125 3.9375Z" stroke="#FAFAFB" stroke-width="2" stroke-linecap="round" stroke-linejoin="round"/>
<path d="M19.6875 9.625C20.4124 9.625 21 9.03737 21 8.3125C21 7.58763 20.4124 7 19.6875 7C18.9626 7 18.375 7.58763 18.375 8.3125C18.375 9.03737 18.9626 9.625 19.6875 9.625Z" fill="#FAFAFB"/>
</svg>
