<svg width="28" height="28" viewBox="0 0 28 28" fill="none" xmlns="http://www.w3.org/2000/svg">
<path d="M4.375 6.125H23.625V19.25C23.625 19.4821 23.5328 19.7046 23.3687 19.8687C23.2046 20.0328 22.9821 20.125 22.75 20.125H18.375C18.1429 20.125 17.9204 20.0328 17.7563 19.8687C17.5922 19.7046 17.5 19.4821 17.5 19.25V16.625H10.5V22.75C10.5 22.9821 10.4078 23.2046 10.2437 23.3687C10.0796 23.5328 9.85706 23.625 9.625 23.625H5.25C5.01794 23.625 4.79538 23.5328 4.63128 23.3687C4.46719 23.2046 4.375 22.9821 4.375 22.75V6.125Z" stroke="#FAFAFB" stroke-width="2" stroke-linecap="round" stroke-linejoin="round"/>
<path d="M10.5 13.125H4.375" stroke="#FAFAFB" stroke-width="2" stroke-linecap="round" stroke-linejoin="round"/>
<path d="M10.5 6.125V16.625" stroke="#FAFAFB" stroke-width="2" stroke-linecap="round" stroke-linejoin="round"/>
<path d="M17.5 13.125H23.625" stroke="#FAFAFB" stroke-width="2" stroke-linecap="round" stroke-linejoin="round"/>
<path d="M17.5 6.125V16.625" stroke="#FAFAFB" stroke-width="2" stroke-linecap="round" stroke-linejoin="round"/>
</svg>
