<svg width="28" height="28" viewBox="0 0 28 28" fill="none" xmlns="http://www.w3.org/2000/svg">
<path d="M10.1937 13.4313C9.81445 12.5007 9.62122 11.5049 9.625 10.5C9.625 8.94248 10.0869 7.41993 10.9522 6.12489C11.8175 4.82985 13.0474 3.82049 14.4864 3.22445C15.9253 2.62841 17.5087 2.47246 19.0363 2.77632C20.5639 3.08018 21.9671 3.8302 23.0685 4.93154C24.1698 6.03288 24.9198 7.43607 25.2237 8.96367C25.5275 10.4913 25.3716 12.0747 24.7756 13.5136C24.1795 14.9526 23.1702 16.1825 21.8751 17.0478C20.5801 17.9131 19.0575 18.375 17.5 18.375C16.4951 18.3788 15.4993 18.1856 14.5687 17.8063V17.8063L13.125 19.25H10.5V21.875H7.875V24.5H3.5V20.125L10.1937 13.4313Z" stroke="#FAFAFB" stroke-width="2" stroke-linecap="round" stroke-linejoin="round"/>
<path d="M19.6875 9.625C20.4124 9.625 21 9.03737 21 8.3125C21 7.58763 20.4124 7 19.6875 7C18.9626 7 18.375 7.58763 18.375 8.3125C18.375 9.03737 18.9626 9.625 19.6875 9.625Z" fill="#FAFAFB"/>
</svg>
