<svg width="28" height="28" viewBox="0 0 28 28" fill="none" xmlns="http://www.w3.org/2000/svg">
<path d="M14 24.5C19.799 24.5 24.5 19.799 24.5 14C24.5 8.20101 19.799 3.5 14 3.5C8.20101 3.5 3.5 8.20101 3.5 14C3.5 19.799 8.20101 24.5 14 24.5Z" stroke="#FAFAFB" stroke-width="2" stroke-linecap="round" stroke-linejoin="round"/>
<path d="M15.4656 14.503C16.0632 14.1773 16.5353 13.6618 16.8073 13.0379C17.0793 12.414 17.1357 11.7173 16.9677 11.0577C16.7996 10.3982 16.4166 9.81345 15.8792 9.39582C15.3418 8.97818 14.6806 8.75146 14 8.75146C13.3194 8.75146 12.6582 8.97818 12.1208 9.39582C11.5834 9.81345 11.2004 10.3982 11.0323 11.0577C10.8643 11.7173 10.9207 12.414 11.1927 13.0379C11.4647 13.6618 11.9368 14.1773 12.5344 14.503L11.025 18.0249C10.967 18.1578 10.9429 18.303 10.955 18.4475C10.967 18.5919 11.0147 18.7312 11.0939 18.8527C11.1731 18.9741 11.2812 19.074 11.4085 19.1433C11.5359 19.2127 11.6784 19.2493 11.8234 19.2499H16.1766C16.3216 19.2493 16.4641 19.2127 16.5915 19.1433C16.7188 19.074 16.8269 18.9741 16.9061 18.8527C16.9853 18.7312 17.033 18.5919 17.045 18.4475C17.0571 18.303 17.033 18.1578 16.975 18.0249L15.4656 14.503Z" stroke="#FAFAFB" stroke-width="2" stroke-linecap="round" stroke-linejoin="round"/>
</svg>
