<svg width="28" height="28" viewBox="0 0 28 28" fill="none" xmlns="http://www.w3.org/2000/svg">
<path d="M23.1875 3.9375H4.8125C4.32925 3.9375 3.9375 4.32925 3.9375 4.8125V23.1875C3.9375 23.6707 4.32925 24.0625 4.8125 24.0625H23.1875C23.6707 24.0625 24.0625 23.6707 24.0625 23.1875V4.8125C24.0625 4.32925 23.6707 3.9375 23.1875 3.9375Z" stroke="#FAFAFB" stroke-width="2" stroke-linecap="round" stroke-linejoin="round"/>
<path d="M13.125 12.25V19.25" stroke="#FAFAFB" stroke-width="2" stroke-linecap="round" stroke-linejoin="round"/>
<path d="M9.625 12.25V19.25" stroke="#FAFAFB" stroke-width="2" stroke-linecap="round" stroke-linejoin="round"/>
<path d="M13.125 15.3125C13.125 14.5003 13.4477 13.7213 14.022 13.147C14.5963 12.5727 15.3753 12.25 16.1875 12.25C16.9997 12.25 17.7787 12.5727 18.353 13.147C18.9273 13.7213 19.25 14.5003 19.25 15.3125V19.25" stroke="#FAFAFB" stroke-width="2" stroke-linecap="round" stroke-linejoin="round"/>
<path d="M9.625 10.0625C10.3499 10.0625 10.9375 9.47487 10.9375 8.75C10.9375 8.02513 10.3499 7.4375 9.625 7.4375C8.90013 7.4375 8.3125 8.02513 8.3125 8.75C8.3125 9.47487 8.90013 10.0625 9.625 10.0625Z" fill="#FAFAFB"/>
</svg>
