<svg width="28" height="28" viewBox="0 0 28 28" fill="none" xmlns="http://www.w3.org/2000/svg">
<path d="M3.5 23.625C3.5 23.625 7 17.5 7 10.5C7 8.64348 7.7375 6.86301 9.05025 5.55025C10.363 4.2375 12.1435 3.5 14 3.5C15.8565 3.5 17.637 4.2375 18.9497 5.55025C20.2625 6.86301 21 8.64348 21 10.5C21 17.5 24.5 23.625 24.5 23.625" stroke="#FAFAFB" stroke-width="2" stroke-linecap="round" stroke-linejoin="round"/>
<path d="M10.9375 13.125C11.6624 13.125 12.25 12.5374 12.25 11.8125C12.25 11.0876 11.6624 10.5 10.9375 10.5C10.2126 10.5 9.625 11.0876 9.625 11.8125C9.625 12.5374 10.2126 13.125 10.9375 13.125Z" fill="#FAFAFB"/>
<path d="M17.0625 13.125C17.7874 13.125 18.375 12.5374 18.375 11.8125C18.375 11.0876 17.7874 10.5 17.0625 10.5C16.3376 10.5 15.75 11.0876 15.75 11.8125C15.75 12.5374 16.3376 13.125 17.0625 13.125Z" fill="#FAFAFB"/>
<path d="M17.5 15.75L14 17.5L10.5 15.75" stroke="#FAFAFB" stroke-width="2" stroke-linecap="round" stroke-linejoin="round"/>
<path d="M9.4502 23.6248C9.91275 22.8279 10.5765 22.1665 11.375 21.7067C12.1735 21.2469 13.0788 21.0049 14.0002 21.0049C14.9216 21.0049 15.8269 21.2469 16.6254 21.7067C17.4239 22.1665 18.0876 22.8279 18.5502 23.6248" stroke="#FAFAFB" stroke-width="2" stroke-linecap="round" stroke-linejoin="round"/>
</svg>
