<svg width="28" height="28" viewBox="0 0 28 28" fill="none" xmlns="http://www.w3.org/2000/svg">
<path d="M11.375 14H23.625" stroke="#FAFAFB" stroke-width="2" stroke-linecap="round" stroke-linejoin="round"/>
<path d="M11.375 7H23.625" stroke="#FAFAFB" stroke-width="2" stroke-linecap="round" stroke-linejoin="round"/>
<path d="M11.375 21H23.625" stroke="#FAFAFB" stroke-width="2" stroke-linecap="round" stroke-linejoin="round"/>
<path d="M4.375 6.5625L6.125 5.6875V11.8125" stroke="#FAFAFB" stroke-width="2" stroke-linecap="round" stroke-linejoin="round"/>
<path d="M4.49531 16.6908C4.57594 16.4911 4.69777 16.3107 4.85284 16.1613C5.00792 16.012 5.19275 15.897 5.39528 15.8239C5.5978 15.7508 5.81347 15.7212 6.0282 15.7371C6.24293 15.753 6.45189 15.814 6.64144 15.9161C6.831 16.0182 6.99688 16.1592 7.12827 16.3298C7.25966 16.5004 7.35359 16.6967 7.40394 16.9061C7.45429 17.1154 7.45993 17.333 7.42048 17.5447C7.38103 17.7564 7.29738 17.9574 7.175 18.1345L4.375 21.8751H7.4375" stroke="#FAFAFB" stroke-width="2" stroke-linecap="round" stroke-linejoin="round"/>
</svg>
