<svg width="28" height="28" viewBox="0 0 28 28" fill="none" xmlns="http://www.w3.org/2000/svg">
<path d="M22.75 9.625H5.25C4.76675 9.625 4.375 10.0168 4.375 10.5V22.75C4.375 23.2332 4.76675 23.625 5.25 23.625H22.75C23.2332 23.625 23.625 23.2332 23.625 22.75V10.5C23.625 10.0168 23.2332 9.625 22.75 9.625Z" stroke="#FAFAFB" stroke-width="2" stroke-linecap="round" stroke-linejoin="round"/>
<path d="M10.0625 9.625V5.6875C10.0625 4.64321 10.4773 3.64169 11.2158 2.90327C11.9542 2.16484 12.9557 1.75 14 1.75C15.0443 1.75 16.0458 2.16484 16.7842 2.90327C17.5227 3.64169 17.9375 4.64321 17.9375 5.6875" stroke="#FAFAFB" stroke-width="2" stroke-linecap="round" stroke-linejoin="round"/>
<path d="M14 17.9375C14.7249 17.9375 15.3125 17.3499 15.3125 16.625C15.3125 15.9001 14.7249 15.3125 14 15.3125C13.2751 15.3125 12.6875 15.9001 12.6875 16.625C12.6875 17.3499 13.2751 17.9375 14 17.9375Z" fill="#FAFAFB"/>
</svg>
