<svg width="28" height="28" viewBox="0 0 28 28" fill="none" xmlns="http://www.w3.org/2000/svg">
<path d="M5.25 10.5H11.375" stroke="#FAFAFB" stroke-width="2" stroke-linecap="round" stroke-linejoin="round"/>
<path d="M16.625 10.5H22.75" stroke="#FAFAFB" stroke-width="2" stroke-linecap="round" stroke-linejoin="round"/>
<path d="M11.375 15.75C11.375 16.4462 11.6516 17.1139 12.1438 17.6062C12.6361 18.0984 13.3038 18.375 14 18.375C14.6962 18.375 15.3639 18.0984 15.8562 17.6062C16.3484 17.1139 16.625 16.4462 16.625 15.75V6.125C16.625 5.89294 16.7172 5.67038 16.8813 5.50628C17.0454 5.34219 17.2679 5.25 17.5 5.25H21.875C22.1071 5.25 22.3296 5.34219 22.4937 5.50628C22.6578 5.67038 22.75 5.89294 22.75 6.125V15.6406C22.75 20.4641 18.8891 24.4672 14.0656 24.5C12.911 24.5087 11.7662 24.2887 10.697 23.8529C9.6278 23.417 8.65545 22.7739 7.83597 21.9605C7.0165 21.1471 6.3661 20.1796 5.92228 19.1137C5.47845 18.0478 5.24997 16.9046 5.25 15.75V6.125C5.25 5.89294 5.34219 5.67038 5.50628 5.50628C5.67038 5.34219 5.89294 5.25 6.125 5.25H10.5C10.7321 5.25 10.9546 5.34219 11.1187 5.50628C11.2828 5.67038 11.375 5.89294 11.375 6.125V15.75Z" stroke="#FAFAFB" stroke-width="2" stroke-linecap="round" stroke-linejoin="round"/>
</svg>
