<svg width="28" height="28" viewBox="0 0 28 28" fill="none" xmlns="http://www.w3.org/2000/svg">
<path d="M13.9239 10.3908C14.4116 9.90799 15.0685 9.63445 15.7547 9.62832C16.441 9.62219 17.1026 9.88396 17.5989 10.358C18.6598 11.3752 18.638 13.1033 17.588 14.1533L10.2598 21.2517C10.0941 21.4162 9.99991 21.6394 9.99786 21.8729C9.99581 22.1064 10.086 22.3313 10.2489 22.4986L13.388 25.6377C13.5519 25.8002 13.7729 25.8922 14.0037 25.8943C14.2345 25.8963 14.4571 25.8082 14.6239 25.6486L21.8864 18.5174C25.2989 15.1049 25.3973 9.54861 22.0176 6.11423C21.2078 5.29052 20.2429 4.6353 19.1786 4.18638C18.1143 3.73745 16.9716 3.5037 15.8165 3.49862C14.6614 3.49354 13.5167 3.71721 12.4485 4.15675C11.3803 4.59629 10.4097 5.24299 9.59264 6.05955L2.36295 13.3767C2.19932 13.5408 2.10742 13.763 2.10742 13.9947C2.10742 14.2264 2.19932 14.4486 2.36295 14.6127L5.50202 17.7517C5.66935 17.9146 5.89421 18.0048 6.1277 18.0028C6.3612 18.0007 6.58444 17.9066 6.74889 17.7408L13.9239 10.3908Z" stroke="#FAFAFB" stroke-width="2" stroke-linecap="round" stroke-linejoin="round"/>
<path d="M13.8691 17.7627L18.2223 22.1158" stroke="#FAFAFB" stroke-width="2" stroke-linecap="round" stroke-linejoin="round"/>
<path d="M5.90625 9.7998L10.2484 14.1529" stroke="#FAFAFB" stroke-width="2" stroke-linecap="round" stroke-linejoin="round"/>
</svg>
