<svg width="28" height="28" viewBox="0 0 28 28" fill="none" xmlns="http://www.w3.org/2000/svg">
<path d="M4.96592 19.3592C3.66314 17.1612 3.20744 14.5633 3.68438 12.0531C4.16132 9.54296 5.53809 7.2932 7.55623 5.7262C9.57437 4.15919 12.0951 3.38271 14.6452 3.54252C17.1952 3.70234 19.5993 4.78745 21.406 6.59416C23.2127 8.40087 24.2978 10.8049 24.4576 13.355C24.6174 15.9051 23.8409 18.4258 22.2739 20.4439C20.7069 22.462 18.4572 23.8388 15.947 24.3158C13.4368 24.7927 10.8389 24.337 8.64092 23.0342V23.0342L5.00967 24.0623C4.8609 24.1059 4.70316 24.1085 4.55298 24.0701C4.40281 24.0317 4.26574 23.9536 4.15613 23.844C4.04652 23.7344 3.96842 23.5973 3.93001 23.4472C3.89159 23.297 3.89428 23.1392 3.9378 22.9905L4.96592 19.3592Z" stroke="#FAFAFB" stroke-width="2" stroke-linecap="round" stroke-linejoin="round"/>
<path d="M8.75 15.75L12.25 12.25L15.75 15.75L19.25 12.25" stroke="#FAFAFB" stroke-width="2" stroke-linecap="round" stroke-linejoin="round"/>
</svg>
