<svg width="28" height="28" viewBox="0 0 28 28" fill="none" xmlns="http://www.w3.org/2000/svg">
<path d="M14.875 20.125V24.5" stroke="#FAFAFB" stroke-width="2" stroke-linecap="round" stroke-linejoin="round"/>
<path d="M14.875 3.5V7.875" stroke="#FAFAFB" stroke-width="2" stroke-linecap="round" stroke-linejoin="round"/>
<path d="M16.625 14H25.375" stroke="#FAFAFB" stroke-width="2" stroke-linecap="round" stroke-linejoin="round"/>
<path d="M15.75 7.875H4.375C3.89175 7.875 3.5 8.26675 3.5 8.75V19.25C3.5 19.7332 3.89175 20.125 4.375 20.125H15.75C16.2332 20.125 16.625 19.7332 16.625 19.25V8.75C16.625 8.26675 16.2332 7.875 15.75 7.875Z" stroke="#FAFAFB" stroke-width="2" stroke-linecap="round" stroke-linejoin="round"/>
<path d="M8.53125 14.875H10.2812C10.7454 14.875 11.1905 14.6906 11.5187 14.3624C11.8469 14.0342 12.0312 13.5891 12.0312 13.125C12.0312 12.6609 11.8469 12.2158 11.5187 11.8876C11.1905 11.5594 10.7454 11.375 10.2812 11.375H8.53125V16.625" stroke="#FAFAFB" stroke-width="2" stroke-linecap="round" stroke-linejoin="round"/>
<path d="M6.34375 7.875C7.6401 6.06997 9.47572 4.72279 11.5864 4.02736C13.6971 3.33193 15.974 3.32411 18.0894 4.00503C20.2049 4.68596 22.0497 6.02051 23.3584 7.8166C24.6671 9.61269 25.3722 11.7777 25.3722 14C25.3722 16.2223 24.6671 18.3873 23.3584 20.1834C22.0497 21.9795 20.2049 23.314 18.0894 23.995C15.974 24.6759 13.6971 24.6681 11.5864 23.9726C9.47572 23.2772 7.6401 21.93 6.34375 20.125" stroke="#FAFAFB" stroke-width="2" stroke-linecap="round" stroke-linejoin="round"/>
</svg>
