<svg width="28" height="28" viewBox="0 0 28 28" fill="none" xmlns="http://www.w3.org/2000/svg">
<path d="M15.75 7.875H4.375C3.89175 7.875 3.5 8.26675 3.5 8.75V19.25C3.5 19.7332 3.89175 20.125 4.375 20.125H15.75C16.2332 20.125 16.625 19.7332 16.625 19.25V8.75C16.625 8.26675 16.2332 7.875 15.75 7.875Z" stroke="#FAFAFB" stroke-width="2" stroke-linecap="round" stroke-linejoin="round"/>
<path d="M16.6254 9.625H20.1254C20.3575 9.625 20.58 9.71719 20.7441 9.88128C20.9082 10.0454 21.0004 10.2679 21.0004 10.5V18.375C21.0004 19.9995 20.3551 21.5574 19.2064 22.706C18.0578 23.8547 16.4998 24.5 14.8754 24.5V24.5C13.5562 24.4991 12.2723 24.073 11.2144 23.2849C10.1564 22.4968 9.38056 21.3887 9.00195 20.125" stroke="#FAFAFB" stroke-width="2" stroke-linecap="round" stroke-linejoin="round"/>
<path d="M12.0312 11.375H8.09375" stroke="#FAFAFB" stroke-width="2" stroke-linecap="round" stroke-linejoin="round"/>
<path d="M10.0625 16.625V11.375" stroke="#FAFAFB" stroke-width="2" stroke-linecap="round" stroke-linejoin="round"/>
<path d="M11.8449 7.87519C11.4984 7.2758 11.3374 6.58711 11.3824 5.89623C11.4274 5.20536 11.6762 4.54333 12.0975 3.99391C12.5187 3.44448 13.0935 3.03234 13.749 2.8096C14.4045 2.58687 15.1114 2.56356 15.7802 2.74261C16.449 2.92167 17.0496 3.29505 17.5062 3.81553C17.9627 4.336 18.2547 4.98019 18.345 5.6666C18.4354 6.35301 18.3202 7.05081 18.014 7.67173C17.7077 8.29265 17.2242 8.8088 16.6246 9.15488" stroke="#FAFAFB" stroke-width="2" stroke-linecap="round" stroke-linejoin="round"/>
<path d="M18.1668 4.94387C18.5616 4.47664 19.0965 4.14917 19.6922 4.01006C20.2879 3.87095 20.9125 3.92762 21.4734 4.17165C22.0343 4.41568 22.5016 4.83407 22.8059 5.36472C23.1102 5.89536 23.2352 6.50998 23.1625 7.11733C23.0898 7.72469 22.8232 8.29241 22.4022 8.73624C21.9813 9.18006 21.4285 9.47633 20.8258 9.58106C20.2232 9.68579 19.6028 9.5934 19.0568 9.31762C18.5108 9.04183 18.0683 8.59734 17.7949 8.05012" stroke="#FAFAFB" stroke-width="2" stroke-linecap="round" stroke-linejoin="round"/>
<path d="M20.9996 9.625H23.9855C24.1219 9.625 24.2526 9.67916 24.349 9.77557C24.4454 9.87197 24.4996 10.0027 24.4996 10.1391V16.625C24.4996 17.5533 24.1309 18.4435 23.4745 19.0999C22.8181 19.7563 21.9279 20.125 20.9996 20.125H20.748" stroke="#FAFAFB" stroke-width="2" stroke-linecap="round" stroke-linejoin="round"/>
</svg>
