<svg width="28" height="28" viewBox="0 0 28 28" fill="none" xmlns="http://www.w3.org/2000/svg">
<path d="M10.5 14H17.5" stroke="#FAFAFB" stroke-width="2" stroke-linecap="round" stroke-linejoin="round"/>
<path d="M10.5 17.5H17.5" stroke="#FAFAFB" stroke-width="2" stroke-linecap="round" stroke-linejoin="round"/>
<path d="M6.125 4.375H21.875C22.1071 4.375 22.3296 4.46719 22.4937 4.63128C22.6578 4.79538 22.75 5.01794 22.75 5.25V21.875C22.75 22.5712 22.4734 23.2389 21.9812 23.7312C21.4889 24.2234 20.8212 24.5 20.125 24.5H7.875C7.17881 24.5 6.51113 24.2234 6.01884 23.7312C5.52656 23.2389 5.25 22.5712 5.25 21.875V5.25C5.25 5.01794 5.34219 4.79538 5.50628 4.63128C5.67038 4.46719 5.89294 4.375 6.125 4.375V4.375Z" stroke="#FAFAFB" stroke-width="2" stroke-linecap="round" stroke-linejoin="round"/>
<path d="M8.75 2.625V6.125" stroke="#FAFAFB" stroke-width="2" stroke-linecap="round" stroke-linejoin="round"/>
<path d="M14 2.625V6.125" stroke="#FAFAFB" stroke-width="2" stroke-linecap="round" stroke-linejoin="round"/>
<path d="M19.25 2.625V6.125" stroke="#FAFAFB" stroke-width="2" stroke-linecap="round" stroke-linejoin="round"/>
</svg>
