<svg width="28" height="28" viewBox="0 0 28 28" fill="none" xmlns="http://www.w3.org/2000/svg">
<path d="M17.1391 23.625H5.25C5.01794 23.625 4.79538 23.5328 4.63128 23.3687C4.46719 23.2046 4.375 22.9821 4.375 22.75V5.25C4.375 5.01794 4.46719 4.79538 4.63128 4.63128C4.79538 4.46719 5.01794 4.375 5.25 4.375H22.75C22.9821 4.375 23.2046 4.46719 23.3687 4.63128C23.5328 4.79538 23.625 5.01794 23.625 5.25V17.1391C23.6254 17.2527 23.6034 17.3653 23.5602 17.4704C23.5171 17.5755 23.4536 17.671 23.3734 17.7516L17.7516 23.3734C17.671 23.4536 17.5755 23.5171 17.4704 23.5602C17.3653 23.6034 17.2527 23.6254 17.1391 23.625V23.625Z" stroke="#FAFAFB" stroke-width="2" stroke-linecap="round" stroke-linejoin="round"/>
<path d="M23.5484 17.5H17.5V23.5484" stroke="#FAFAFB" stroke-width="2" stroke-linecap="round" stroke-linejoin="round"/>
</svg>
