<svg width="28" height="28" viewBox="0 0 28 28" fill="none" xmlns="http://www.w3.org/2000/svg">
<path d="M18.8018 17.5C19.5266 17.5 20.1143 16.9124 20.1143 16.1875C20.1143 15.4626 19.5266 14.875 18.8018 14.875C18.0769 14.875 17.4893 15.4626 17.4893 16.1875C17.4893 16.9124 18.0769 17.5 18.8018 17.5Z" fill="#FAFAFB"/>
<path d="M22.4879 17.8719C22.0904 19.462 21.2543 20.9085 20.0749 22.0466C18.8954 23.1847 17.42 23.9686 15.8168 24.3091C14.2135 24.6496 12.5469 24.5329 11.0067 23.9724C9.46648 23.4119 8.11469 22.4301 7.10529 21.1388C6.09589 19.8475 5.46946 18.2986 5.29739 16.6686C5.12531 15.0387 5.41449 13.3932 6.13199 11.9196C6.84949 10.4459 7.96647 9.20347 9.35566 8.33369C10.7448 7.46391 12.3504 7.0018 13.9894 7" stroke="#FAFAFB" stroke-width="2" stroke-linecap="round" stroke-linejoin="round"/>
<path d="M7.35042 10.0515C6.55825 9.98584 5.82265 9.61471 5.29911 9.01659C4.77556 8.41846 4.50509 7.6402 4.54485 6.8463C4.58462 6.05241 4.93151 5.30507 5.5122 4.76226C6.0929 4.21944 6.8619 3.92368 7.65668 3.93747L20.3442 10.0625C21.1564 10.0625 21.9354 9.73982 22.5097 9.16549C23.084 8.59116 23.4067 7.8122 23.4067 6.99997C23.4067 6.18775 23.084 5.40879 22.5097 4.83446C21.9354 4.26013 21.1564 3.93747 20.3442 3.93747" stroke="#FAFAFB" stroke-width="2" stroke-linecap="round" stroke-linejoin="round"/>
<path d="M5.31543 16.8766L13.9889 12.25V24.5" stroke="#FAFAFB" stroke-width="2" stroke-linecap="round" stroke-linejoin="round"/>
<path d="M10.4893 14.1201V23.767" stroke="#FAFAFB" stroke-width="2" stroke-linecap="round" stroke-linejoin="round"/>
</svg>
