<svg width="28" height="28" viewBox="0 0 28 28" fill="none" xmlns="http://www.w3.org/2000/svg">
<path d="M17.5005 8.74979L8.38954 18.0138C8.08791 18.3467 7.92585 18.7829 7.9369 19.232C7.94796 19.681 8.13129 20.1087 8.44894 20.4263C8.76658 20.744 9.19422 20.9273 9.6433 20.9384C10.0924 20.9494 10.5285 20.7874 10.8614 20.4857L21.7224 9.47166C22.3256 8.80588 22.6497 7.9336 22.6276 7.03543C22.6055 6.13727 22.2388 5.282 21.6036 4.64671C20.9683 4.01142 20.113 3.64476 19.2148 3.62264C18.3167 3.60053 17.4444 3.92466 16.7786 4.52791L5.91766 15.542C4.93429 16.5253 4.38184 17.8591 4.38184 19.2498C4.38184 20.6405 4.93429 21.9742 5.91766 22.9576C6.90104 23.941 8.23478 24.4934 9.62548 24.4934C11.0162 24.4934 12.3499 23.941 13.3333 22.9576L22.313 13.9998" stroke="#FAFAFB" stroke-width="2" stroke-linecap="round" stroke-linejoin="round"/>
</svg>
