<svg width="28" height="28" viewBox="0 0 28 28" fill="none" xmlns="http://www.w3.org/2000/svg">
<path d="M8.53164 15.75H20.7816C21.2458 15.75 21.6909 15.5656 22.0191 15.2374C22.3473 14.9092 22.5316 14.4641 22.5316 14C22.5316 13.5359 22.3473 13.0908 22.0191 12.7626C21.6909 12.4344 21.2458 12.25 20.7816 12.25H5.03164C3.15039 12.25 1.61914 13.8141 1.61914 15.75C1.61914 17.6859 3.15039 19.25 5.03164 19.25H21.0004C22.3928 19.25 23.7281 18.6969 24.7127 17.7123C25.6973 16.7277 26.2504 15.3924 26.2504 14C26.2504 12.6076 25.6973 11.2723 24.7127 10.2877C23.7281 9.30312 22.3928 8.75 21.0004 8.75H8.75039" stroke="#FAFAFB" stroke-width="2" stroke-linecap="round" stroke-linejoin="round"/>
</svg>
