<svg width="28" height="28" viewBox="0 0 28 28" fill="none" xmlns="http://www.w3.org/2000/svg">
<path d="M7.4375 3.5L14.6562 17.9375" stroke="#FAFAFB" stroke-width="2" stroke-linecap="round" stroke-linejoin="round"/>
<path d="M14.6562 3.5H7.4375V17.9375H14.6562V3.5Z" stroke="#FAFAFB" stroke-width="2" stroke-linecap="round" stroke-linejoin="round"/>
<path d="M14.6563 17.9375V25.1562C13.7079 25.1577 12.7685 24.972 11.8921 24.6097C11.0156 24.2474 10.2192 23.7157 9.54862 23.0451C8.87801 22.3745 8.34634 21.5782 7.98407 20.7017C7.6218 19.8252 7.43607 18.8859 7.43751 17.9375" stroke="#FAFAFB" stroke-width="2" stroke-linecap="round" stroke-linejoin="round"/>
<path d="M14.6562 17.9375H15.5312C17.4458 17.9375 19.2819 17.177 20.6357 15.8232C21.9895 14.4694 22.75 12.6333 22.75 10.7188C22.75 8.80422 21.9895 6.9681 20.6357 5.61432C19.2819 4.26054 17.4458 3.5 15.5312 3.5H14.6562" stroke="#FAFAFB" stroke-width="2" stroke-linecap="round" stroke-linejoin="round"/>
</svg>
