<svg width="28" height="28" viewBox="0 0 28 28" fill="none" xmlns="http://www.w3.org/2000/svg">
<path d="M13.125 9.625L9.625 24.5" stroke="#FAFAFB" stroke-width="2" stroke-linecap="round" stroke-linejoin="round"/>
<path d="M6.72655 17.1283C5.96727 15.9929 5.48433 14.6955 5.31639 13.34C5.14845 11.9845 5.30019 10.6085 5.75944 9.32211C6.2187 8.03575 6.97272 6.87478 7.96116 5.93211C8.94959 4.98944 10.145 4.29127 11.4517 3.89347C12.7583 3.49567 14.14 3.4093 15.486 3.64127C16.832 3.87323 18.1051 4.4171 19.2032 5.22932C20.3014 6.04155 21.1941 7.09958 21.81 8.31872C22.4259 9.53786 22.7478 10.8843 22.75 12.2501C22.75 17.0845 19.25 20.1251 15.75 20.1251C12.25 20.1251 11.2 17.8173 11.2 17.8173" stroke="#FAFAFB" stroke-width="2" stroke-linecap="round" stroke-linejoin="round"/>
</svg>
