<svg width="28" height="28" viewBox="0 0 28 28" fill="none" xmlns="http://www.w3.org/2000/svg">
<path d="M9.625 18.375L5.25 22.75" stroke="#FAFAFB" stroke-width="2" stroke-linecap="round" stroke-linejoin="round"/>
<path d="M16.8767 3.24834L10.0627 10.0624C10.0627 10.0624 7.03297 8.54209 3.78453 11.1671C3.68895 11.2444 3.61074 11.3411 3.555 11.4507C3.49927 11.5603 3.46726 11.6804 3.46107 11.8032C3.45488 11.926 3.47464 12.0488 3.51907 12.1634C3.56349 12.2781 3.63159 12.3821 3.71891 12.4687L15.5095 24.2593C15.5978 24.3491 15.7044 24.4188 15.8221 24.4636C15.9397 24.5084 16.0657 24.5273 16.1913 24.519C16.317 24.5107 16.4393 24.4754 16.5501 24.4155C16.6608 24.3555 16.7573 24.2724 16.833 24.1718C17.7517 22.9577 19.1955 20.4421 17.9377 17.9374L24.7517 11.1233C24.8344 11.0419 24.9001 10.9449 24.9449 10.8378C24.9897 10.7308 25.0128 10.6159 25.0128 10.4999C25.0128 10.3839 24.9897 10.269 24.9449 10.162C24.9001 10.0549 24.8344 9.95788 24.7517 9.87647L18.1236 3.24834C18.0422 3.16567 17.9451 3.10001 17.8381 3.0552C17.7311 3.01038 17.6162 2.9873 17.5002 2.9873C17.3841 2.9873 17.2693 3.01038 17.1622 3.0552C17.0552 3.10001 16.9581 3.16567 16.8767 3.24834Z" stroke="#FAFAFB" stroke-width="2" stroke-linecap="round" stroke-linejoin="round"/>
</svg>
