<svg width="28" height="28" viewBox="0 0 28 28" fill="none" xmlns="http://www.w3.org/2000/svg">
<path d="M20.5625 5.25C21.529 5.25 22.3125 4.4665 22.3125 3.5C22.3125 2.5335 21.529 1.75 20.5625 1.75C19.596 1.75 18.8125 2.5335 18.8125 3.5C18.8125 4.4665 19.596 5.25 20.5625 5.25Z" stroke="#FAFAFB" stroke-width="2" stroke-linecap="round" stroke-linejoin="round"/>
<path d="M17.6094 19.25C16.4936 19.8264 15.2559 20.1272 14 20.1272C12.7441 20.1272 11.5064 19.8264 10.3906 19.25" stroke="#FAFAFB" stroke-width="2" stroke-linecap="round" stroke-linejoin="round"/>
<path d="M14 7.875L14.875 2.625L18.8344 3.2375" stroke="#FAFAFB" stroke-width="2" stroke-linecap="round" stroke-linejoin="round"/>
<path d="M6.49649 9.83281C8.49805 8.60781 11.1231 7.875 13.9996 7.875C16.8762 7.875 19.5012 8.60781 21.5027 9.83281C21.7323 9.51778 22.0291 9.25783 22.3717 9.07184C22.7143 8.88585 23.094 8.77848 23.4832 8.75754C23.8724 8.73659 24.2614 8.8026 24.622 8.95076C24.9825 9.09892 25.3055 9.32551 25.5676 9.61409C25.8296 9.90267 26.0241 10.246 26.1369 10.6191C26.2497 10.9922 26.278 11.3858 26.2197 11.7712C26.1615 12.1566 26.0181 12.5242 25.8 12.8473C25.5819 13.1704 25.2946 13.4409 24.959 13.6391V13.6391C25.234 14.3088 25.3752 15.026 25.3746 15.75C25.3746 20.1031 20.2777 23.625 13.9996 23.625C7.72149 23.625 2.62462 20.1031 2.62462 15.75C2.62402 15.026 2.76522 14.3088 3.04024 13.6391V13.6391C2.7046 13.4409 2.41731 13.1704 2.19923 12.8473C1.98116 12.5242 1.83778 12.1566 1.7795 11.7712C1.72123 11.3858 1.74952 10.9922 1.86232 10.6191C1.97512 10.246 2.16961 9.90267 2.43165 9.61409C2.69369 9.32551 3.01671 9.09892 3.37725 8.95076C3.73779 8.8026 4.12681 8.73659 4.51604 8.75754C4.90528 8.77848 5.28496 8.88585 5.62753 9.07184C5.97009 9.25783 6.26693 9.51778 6.49649 9.83281V9.83281Z" stroke="#FAFAFB" stroke-width="2" stroke-linecap="round" stroke-linejoin="round"/>
<path d="M9.625 16.1875C10.5915 16.1875 11.375 15.404 11.375 14.4375C11.375 13.471 10.5915 12.6875 9.625 12.6875C8.6585 12.6875 7.875 13.471 7.875 14.4375C7.875 15.404 8.6585 16.1875 9.625 16.1875Z" fill="#FAFAFB"/>
<path d="M18.375 16.1875C19.3415 16.1875 20.125 15.404 20.125 14.4375C20.125 13.471 19.3415 12.6875 18.375 12.6875C17.4085 12.6875 16.625 13.471 16.625 14.4375C16.625 15.404 17.4085 16.1875 18.375 16.1875Z" fill="#FAFAFB"/>
</svg>
