<svg width="28" height="28" viewBox="0 0 28 28" fill="none" xmlns="http://www.w3.org/2000/svg">
<path d="M15.75 24.5H12.25" stroke="#FAFAFB" stroke-width="2" stroke-linecap="round" stroke-linejoin="round"/>
<path d="M13.4531 2.16562C11.3749 3.82812 4.42963 10.4781 10.4999 21H17.4999C23.4499 10.4781 16.6031 3.83906 14.5468 2.16562C14.3934 2.03748 14.1998 1.96729 13.9999 1.96729C13.8 1.96729 13.6065 2.03748 13.4531 2.16562Z" stroke="#FAFAFB" stroke-width="2" stroke-linecap="round" stroke-linejoin="round"/>
<path d="M8.08273 12.1846L4.64836 16.2971C4.56184 16.398 4.50079 16.5182 4.47034 16.6476C4.43989 16.7771 4.44092 16.9119 4.47336 17.0408L5.81867 23.133C5.85113 23.2778 5.91989 23.412 6.01849 23.5229C6.11708 23.6338 6.24227 23.7179 6.38227 23.7671C6.52228 23.8163 6.6725 23.8291 6.81881 23.8043C6.96513 23.7795 7.10273 23.7178 7.21867 23.6252L10.4999 21.0002" stroke="#FAFAFB" stroke-width="2" stroke-linecap="round" stroke-linejoin="round"/>
<path d="M19.8516 12.0967L23.3516 16.2967C23.4381 16.3976 23.4991 16.5178 23.5296 16.6473C23.56 16.7767 23.559 16.9115 23.5266 17.0404L22.1813 23.1326C22.1488 23.2774 22.08 23.4116 21.9814 23.5225C21.8828 23.6334 21.7577 23.7175 21.6176 23.7667C21.4776 23.8159 21.3274 23.8287 21.1811 23.8039C21.0348 23.7791 20.8972 23.7174 20.7812 23.6248L17.5 20.9998" stroke="#FAFAFB" stroke-width="2" stroke-linecap="round" stroke-linejoin="round"/>
<path d="M14 11.8125C14.7249 11.8125 15.3125 11.2249 15.3125 10.5C15.3125 9.77513 14.7249 9.1875 14 9.1875C13.2751 9.1875 12.6875 9.77513 12.6875 10.5C12.6875 11.2249 13.2751 11.8125 14 11.8125Z" fill="#FAFAFB"/>
</svg>
