<svg width="28" height="28" viewBox="0 0 28 28" fill="none" xmlns="http://www.w3.org/2000/svg">
<path d="M14 11.375V14H6.125C5.42881 14 4.76113 13.7234 4.26884 13.2312C3.77656 12.7389 3.5 12.0712 3.5 11.375C3.5 10.6788 3.77656 10.0111 4.26884 9.51884C4.76113 9.02656 5.42881 8.75 6.125 8.75H11.375C12.0712 8.75 12.7389 9.02656 13.2312 9.51884C13.7234 10.0111 14 10.6788 14 11.375V11.375Z" stroke="#FAFAFB" stroke-width="2" stroke-linecap="round" stroke-linejoin="round"/>
<path d="M14 8.75002H11.375C11.0299 8.75147 10.6879 8.68456 10.3688 8.55315C10.0496 8.42175 9.75968 8.22845 9.51564 7.9844C9.2716 7.74036 9.0783 7.45041 8.94689 7.13128C8.81549 6.81214 8.74858 6.47015 8.75002 6.12502V6.12502C8.74858 5.7799 8.81549 5.4379 8.94689 5.11877C9.0783 4.79964 9.2716 4.50968 9.51564 4.26564C9.75968 4.0216 10.0496 3.8283 10.3688 3.69689C10.6879 3.56549 11.0299 3.49858 11.375 3.50002V3.50002C11.7201 3.49858 12.0621 3.56549 12.3813 3.69689C12.7004 3.8283 12.9904 4.0216 13.2344 4.26564C13.4784 4.50968 13.6717 4.79964 13.8032 5.11877C13.9346 5.4379 14.0015 5.7799 14 6.12502V8.75002Z" stroke="#FAFAFB" stroke-width="2" stroke-linecap="round" stroke-linejoin="round"/>
<path d="M16.625 14H14V6.125C14 5.42881 14.2766 4.76113 14.7688 4.26884C15.2611 3.77656 15.9288 3.5 16.625 3.5C17.3212 3.5 17.9889 3.77656 18.4812 4.26884C18.9734 4.76113 19.25 5.42881 19.25 6.125V11.375C19.25 12.0712 18.9734 12.7389 18.4812 13.2312C17.9889 13.7234 17.3212 14 16.625 14V14Z" stroke="#FAFAFB" stroke-width="2" stroke-linecap="round" stroke-linejoin="round"/>
<path d="M19.25 14V11.375C19.2486 11.0299 19.3155 10.6879 19.4469 10.3688C19.5783 10.0496 19.7716 9.75968 20.0156 9.51564C20.2597 9.2716 20.5496 9.0783 20.8688 8.94689C21.1879 8.81549 21.5299 8.74858 21.875 8.75002V8.75002C22.2201 8.74858 22.5621 8.81549 22.8813 8.94689C23.2004 9.0783 23.4904 9.2716 23.7344 9.51564C23.9784 9.75968 24.1717 10.0496 24.3032 10.3688C24.4346 10.6879 24.5015 11.0299 24.5 11.375V11.375C24.5015 11.7201 24.4346 12.0621 24.3032 12.3813C24.1717 12.7004 23.9784 12.9904 23.7344 13.2344C23.4904 13.4784 23.2004 13.6717 22.8813 13.8032C22.5621 13.9346 22.2201 14.0015 21.875 14H19.25Z" stroke="#FAFAFB" stroke-width="2" stroke-linecap="round" stroke-linejoin="round"/>
<path d="M14 16.625V14H21.875C22.5712 14 23.2389 14.2766 23.7312 14.7688C24.2234 15.2611 24.5 15.9288 24.5 16.625V16.625C24.5 17.3212 24.2234 17.9889 23.7312 18.4812C23.2389 18.9734 22.5712 19.25 21.875 19.25H16.625C15.9288 19.25 15.2611 18.9734 14.7688 18.4812C14.2766 17.9889 14 17.3212 14 16.625Z" stroke="#FAFAFB" stroke-width="2" stroke-linecap="round" stroke-linejoin="round"/>
<path d="M14 19.25H16.625C16.9701 19.2486 17.3121 19.3155 17.6313 19.4469C17.9504 19.5783 18.2404 19.7716 18.4844 20.0156C18.7284 20.2597 18.9217 20.5496 19.0532 20.8688C19.1846 21.1879 19.2515 21.5299 19.25 21.875V21.875C19.2515 22.2201 19.1846 22.5621 19.0532 22.8813C18.9217 23.2004 18.7284 23.4904 18.4844 23.7344C18.2404 23.9784 17.9504 24.1717 17.6313 24.3032C17.3121 24.4346 16.9701 24.5015 16.625 24.5C16.2799 24.5015 15.9379 24.4346 15.6188 24.3032C15.2996 24.1717 15.0097 23.9784 14.7656 23.7344C14.5216 23.4904 14.3283 23.2004 14.1969 22.8813C14.0655 22.5621 13.9986 22.2201 14 21.875V19.25Z" stroke="#FAFAFB" stroke-width="2" stroke-linecap="round" stroke-linejoin="round"/>
<path d="M11.375 14H14V21.875C14 22.5712 13.7234 23.2389 13.2312 23.7312C12.7389 24.2234 12.0712 24.5 11.375 24.5V24.5C10.6788 24.5 10.0111 24.2234 9.51884 23.7312C9.02656 23.2389 8.75 22.5712 8.75 21.875V16.625C8.75 15.9288 9.02656 15.2611 9.51884 14.7688C10.0111 14.2766 10.6788 14 11.375 14V14Z" stroke="#FAFAFB" stroke-width="2" stroke-linecap="round" stroke-linejoin="round"/>
<path d="M8.75002 14V16.625C8.75147 16.9701 8.68456 17.3121 8.55315 17.6313C8.42175 17.9504 8.22845 18.2404 7.9844 18.4844C7.74036 18.7284 7.45041 18.9217 7.13128 19.0532C6.81214 19.1846 6.47015 19.2515 6.12502 19.25V19.25C5.7799 19.2515 5.4379 19.1846 5.11877 19.0532C4.79964 18.9217 4.50968 18.7284 4.26564 18.4844C4.0216 18.2404 3.8283 17.9504 3.69689 17.6313C3.56549 17.3121 3.49858 16.9701 3.50002 16.625C3.49858 16.2799 3.56549 15.9379 3.69689 15.6188C3.8283 15.2996 4.0216 15.0097 4.26564 14.7656C4.50968 14.5216 4.79964 14.3283 5.11877 14.1969C5.4379 14.0655 5.7799 13.9986 6.12502 14H8.75002Z" stroke="#FAFAFB" stroke-width="2" stroke-linecap="round" stroke-linejoin="round"/>
</svg>
