<svg width="28" height="28" viewBox="0 0 28 28" fill="none" xmlns="http://www.w3.org/2000/svg">
<path d="M14 24.5C19.799 24.5 24.5 19.799 24.5 14C24.5 8.20101 19.799 3.5 14 3.5C8.20101 3.5 3.5 8.20101 3.5 14C3.5 19.799 8.20101 24.5 14 24.5Z" stroke="#FAFAFB" stroke-width="2" stroke-linecap="round" stroke-linejoin="round"/>
<path d="M19.5895 11.8453C17.8573 10.9592 15.9392 10.4981 13.9936 10.5C12.048 10.5019 10.1308 10.9668 8.40039 11.8562" stroke="#FAFAFB" stroke-width="2" stroke-linecap="round" stroke-linejoin="round"/>
<path d="M17.9701 14.9518C16.7383 14.3246 15.3753 13.9986 13.993 14.0005C12.6107 14.0024 11.2486 14.3322 10.0186 14.9627" stroke="#FAFAFB" stroke-width="2" stroke-linecap="round" stroke-linejoin="round"/>
<path d="M16.3518 18.0578C15.6229 17.6888 14.8171 17.4977 14.0002 17.5C13.1803 17.5016 12.3718 17.6925 11.6377 18.0578" stroke="#FAFAFB" stroke-width="2" stroke-linecap="round" stroke-linejoin="round"/>
</svg>
