<svg width="28" height="28" viewBox="0 0 28 28" fill="none" xmlns="http://www.w3.org/2000/svg">
<path d="M10.0518 16.625C10.0518 18.0797 11.8236 19.25 14.0002 19.25C16.1768 19.25 17.9486 18.0797 17.9486 16.625C17.9486 13.125 10.2705 14.4375 10.2705 11.375C10.2705 9.92031 11.8236 8.75 14.0002 8.75C15.6299 8.75 16.9096 9.40625 17.4455 10.3578" stroke="#FAFAFB" stroke-width="2" stroke-linecap="round" stroke-linejoin="round"/>
<path d="M22.75 4.375H5.25C4.76675 4.375 4.375 4.76675 4.375 5.25V22.75C4.375 23.2332 4.76675 23.625 5.25 23.625H22.75C23.2332 23.625 23.625 23.2332 23.625 22.75V5.25C23.625 4.76675 23.2332 4.375 22.75 4.375Z" stroke="#FAFAFB" stroke-width="2" stroke-linecap="round" stroke-linejoin="round"/>
</svg>
