<svg width="28" height="28" viewBox="0 0 28 28" fill="none" xmlns="http://www.w3.org/2000/svg">
<path d="M9.62536 14.7545L19.4582 23.406C19.5718 23.5066 19.7097 23.5759 19.8582 23.6072C20.0067 23.6384 20.1608 23.6304 20.3053 23.5841C20.4498 23.5378 20.5798 23.4546 20.6825 23.3429C20.7852 23.2311 20.857 23.0946 20.891 22.9467L25.0035 4.98729C25.038 4.83262 25.0298 4.67149 24.9799 4.5211C24.9299 4.37072 24.8401 4.23671 24.7199 4.1334C24.5998 4.03009 24.4538 3.96135 24.2976 3.93451C24.1415 3.90768 23.9809 3.92376 23.8332 3.98104L3.64255 11.9107C2.83317 12.2279 2.94255 13.4092 3.79567 13.5842L9.62536 14.7545Z" stroke="#FAFAFB" stroke-width="2" stroke-linecap="round" stroke-linejoin="round"/>
<path d="M9.625 14.7545L24.5109 4.00293" stroke="#FAFAFB" stroke-width="2" stroke-linecap="round" stroke-linejoin="round"/>
<path d="M14.5359 19.0752L11.1234 22.4877C11.0017 22.6113 10.8459 22.696 10.676 22.7309C10.506 22.7658 10.3295 22.7493 10.1689 22.6837C10.0083 22.618 9.87086 22.5061 9.77401 22.3622C9.67716 22.2182 9.62529 22.0487 9.625 21.8752V14.7549" stroke="#FAFAFB" stroke-width="2" stroke-linecap="round" stroke-linejoin="round"/>
</svg>
