<svg width="28" height="28" viewBox="0 0 28 28" fill="none" xmlns="http://www.w3.org/2000/svg">
<path d="M4.375 6.125V19.25" stroke="#FAFAFB" stroke-width="2" stroke-linecap="round" stroke-linejoin="round"/>
<path d="M15.75 12.6875H4.375" stroke="#FAFAFB" stroke-width="2" stroke-linecap="round" stroke-linejoin="round"/>
<path d="M15.75 6.125V19.25" stroke="#FAFAFB" stroke-width="2" stroke-linecap="round" stroke-linejoin="round"/>
<path d="M26.25 11.8125H21.8531L21 17.0844C21.4283 16.6561 21.974 16.3645 22.5681 16.2463C23.1621 16.1282 23.7779 16.1888 24.3374 16.4206C24.897 16.6525 25.3753 17.045 25.7118 17.5486C26.0483 18.0522 26.2279 18.6443 26.2279 19.25C26.2279 19.8557 26.0483 20.4478 25.7118 20.9514C25.3753 21.455 24.897 21.8475 24.3374 22.0794C23.7779 22.3112 23.1621 22.3718 22.5681 22.2537C21.974 22.1355 21.4283 21.8439 21 21.4156" stroke="#FAFAFB" stroke-width="2" stroke-linecap="round" stroke-linejoin="round"/>
</svg>
