<svg width="28" height="28" viewBox="0 0 28 28" fill="none" xmlns="http://www.w3.org/2000/svg">
<path d="M4.375 6.125V19.25" stroke="#FAFAFB" stroke-width="2" stroke-linecap="round" stroke-linejoin="round"/>
<path d="M15.75 12.6875H4.375" stroke="#FAFAFB" stroke-width="2" stroke-linecap="round" stroke-linejoin="round"/>
<path d="M15.75 6.125V19.25" stroke="#FAFAFB" stroke-width="2" stroke-linecap="round" stroke-linejoin="round"/>
<path d="M21 11.8125H26.25L23.1875 16.1875C23.6911 16.1875 24.1869 16.3118 24.6311 16.5492C25.0752 16.7866 25.4539 17.1299 25.7337 17.5487C26.0135 17.9674 26.1857 18.4487 26.235 18.9499C26.2844 19.4511 26.2094 19.9567 26.0166 20.422C25.8239 20.8873 25.5194 21.2978 25.1301 21.6173C24.7408 21.9368 24.2787 22.1554 23.7848 22.2536C23.2909 22.3519 22.7803 22.3268 22.2984 22.1807C21.8165 22.0345 21.378 21.7717 21.0219 21.4156" stroke="#FAFAFB" stroke-width="2" stroke-linecap="round" stroke-linejoin="round"/>
</svg>
