<svg width="28" height="28" viewBox="0 0 28 28" fill="none" xmlns="http://www.w3.org/2000/svg">
<path d="M12.25 5.25V22.75" stroke="#FAFAFB" stroke-width="2" stroke-linecap="round" stroke-linejoin="round"/>
<path d="M15.75 7.875H25.375C25.6071 7.875 25.8296 7.96719 25.9937 8.13128C26.1578 8.29538 26.25 8.51794 26.25 8.75V19.25C26.25 19.4821 26.1578 19.7046 25.9937 19.8687C25.8296 20.0328 25.6071 20.125 25.375 20.125H15.75" stroke="#FAFAFB" stroke-width="2" stroke-linecap="round" stroke-linejoin="round"/>
<path d="M12.25 20.125H2.625C2.39294 20.125 2.17038 20.0328 2.00628 19.8687C1.84219 19.7046 1.75 19.4821 1.75 19.25V8.75C1.75 8.51794 1.84219 8.29538 2.00628 8.13128C2.17038 7.96719 2.39294 7.875 2.625 7.875H12.25" stroke="#FAFAFB" stroke-width="2" stroke-linecap="round" stroke-linejoin="round"/>
<path d="M5.46875 12.25H8.53125" stroke="#FAFAFB" stroke-width="2" stroke-linecap="round" stroke-linejoin="round"/>
<path d="M7 12.25V16.1875" stroke="#FAFAFB" stroke-width="2" stroke-linecap="round" stroke-linejoin="round"/>
</svg>
