<svg width="28" height="28" viewBox="0 0 28 28" fill="none" xmlns="http://www.w3.org/2000/svg">
<path d="M18.375 11.5938C20.16 12.8754 22.3025 13.5641 24.5 13.5625V9.1875C22.8755 9.1875 21.3176 8.54219 20.169 7.39353C19.0203 6.24487 18.375 4.68695 18.375 3.0625H14V17.0625C14 17.6106 13.8529 18.1486 13.574 18.6204C13.2952 19.0922 12.8949 19.4806 12.4148 19.7449C11.9347 20.0093 11.3925 20.14 10.8447 20.1234C10.2969 20.1068 9.76362 19.9435 9.30044 19.6505C8.83726 19.3576 8.46119 18.9457 8.21145 18.4579C7.96171 17.97 7.84745 17.4241 7.88061 16.877C7.91376 16.33 8.09311 15.8019 8.39994 15.3478C8.70677 14.8936 9.12983 14.5302 9.625 14.2953V9.74531C8.2322 9.99502 6.93953 10.6369 5.89873 11.5955C4.85793 12.5542 4.1122 13.7898 3.74907 15.1574C3.38595 16.5251 3.42049 17.9679 3.84866 19.3166C4.27682 20.6653 5.08083 21.8638 6.16631 22.7715C7.2518 23.6793 8.5737 24.2585 9.97686 24.4413C11.38 24.6241 12.8062 24.4028 14.088 23.8034C15.3698 23.204 16.454 22.2514 17.2133 21.0574C17.9727 19.8634 18.3757 18.4775 18.375 17.0625V11.5938Z" stroke="#FAFAFB" stroke-width="2" stroke-linecap="round" stroke-linejoin="round"/>
</svg>
