<svg width="28" height="28" viewBox="0 0 28 28" fill="none" xmlns="http://www.w3.org/2000/svg">
<path d="M7.875 10.9375H3.5C3.01675 10.9375 2.625 11.3293 2.625 11.8125V16.1875C2.625 16.6707 3.01675 17.0625 3.5 17.0625H7.875C8.35825 17.0625 8.75 16.6707 8.75 16.1875V11.8125C8.75 11.3293 8.35825 10.9375 7.875 10.9375Z" stroke="#FAFAFB" stroke-width="2" stroke-linecap="round" stroke-linejoin="round"/>
<path d="M23.625 4.375H18.375C17.8918 4.375 17.5 4.76675 17.5 5.25V10.5C17.5 10.9832 17.8918 11.375 18.375 11.375H23.625C24.1082 11.375 24.5 10.9832 24.5 10.5V5.25C24.5 4.76675 24.1082 4.375 23.625 4.375Z" stroke="#FAFAFB" stroke-width="2" stroke-linecap="round" stroke-linejoin="round"/>
<path d="M23.625 16.625H18.375C17.8918 16.625 17.5 17.0168 17.5 17.5V22.75C17.5 23.2332 17.8918 23.625 18.375 23.625H23.625C24.1082 23.625 24.5 23.2332 24.5 22.75V17.5C24.5 17.0168 24.1082 16.625 23.625 16.625Z" stroke="#FAFAFB" stroke-width="2" stroke-linecap="round" stroke-linejoin="round"/>
<path d="M8.75 14H13.125" stroke="#FAFAFB" stroke-width="2" stroke-linecap="round" stroke-linejoin="round"/>
<path d="M17.5 20.125H15.75C15.4049 20.1265 15.0629 20.0596 14.7438 19.9282C14.4246 19.7967 14.1347 19.6034 13.8906 19.3594C13.6466 19.1154 13.4533 18.8254 13.3219 18.5063C13.1905 18.1871 13.1236 17.8451 13.125 17.5V10.5C13.1236 10.1549 13.1905 9.8129 13.3219 9.49377C13.4533 9.17464 13.6466 8.88468 13.8906 8.64064C14.1347 8.3966 14.4246 8.2033 14.7438 8.07189C15.0629 7.94049 15.4049 7.87358 15.75 7.87502H17.5" stroke="#FAFAFB" stroke-width="2" stroke-linecap="round" stroke-linejoin="round"/>
</svg>
