<svg width="28" height="28" viewBox="0 0 28 28" fill="none" xmlns="http://www.w3.org/2000/svg">
<path d="M18.0578 21.875H13.4422C13.2373 21.8751 13.0393 21.9488 12.8844 22.0828L7.875 26.25V21.875H5.25C5.01794 21.875 4.79538 21.7828 4.63128 21.6187C4.46719 21.4546 4.375 21.2321 4.375 21V5.25C4.375 5.01794 4.46719 4.79538 4.63128 4.63128C4.79538 4.46719 5.01794 4.375 5.25 4.375H22.75C22.9821 4.375 23.2046 4.46719 23.3687 4.63128C23.5328 4.79538 23.625 5.01794 23.625 5.25V17.0953C23.6233 17.2228 23.594 17.3484 23.5393 17.4635C23.4845 17.5787 23.4056 17.6807 23.3078 17.7625L18.6156 21.6672C18.4607 21.8012 18.2627 21.8749 18.0578 21.875V21.875Z" stroke="#FAFAFB" stroke-width="2" stroke-linecap="round" stroke-linejoin="round"/>
<path d="M18.375 9.625V14.875" stroke="#FAFAFB" stroke-width="2" stroke-linecap="round" stroke-linejoin="round"/>
<path d="M13.125 9.625V14.875" stroke="#FAFAFB" stroke-width="2" stroke-linecap="round" stroke-linejoin="round"/>
</svg>
