<svg width="28" height="28" viewBox="0 0 28 28" fill="none" xmlns="http://www.w3.org/2000/svg">
<path d="M14 8.75V14.875" stroke="#FAFAFB" stroke-width="2" stroke-linecap="round" stroke-linejoin="round"/>
<path d="M17.9922 3.50001H10.0078C9.8942 3.49961 9.78162 3.52162 9.67651 3.56479C9.57141 3.60795 9.47586 3.67143 9.39532 3.75157L3.75157 9.39532C3.67143 9.47586 3.60795 9.57141 3.56479 9.67651C3.52162 9.78162 3.49961 9.8942 3.50001 10.0078V17.9922C3.49961 18.1058 3.52162 18.2184 3.56479 18.3235C3.60795 18.4286 3.67143 18.5242 3.75157 18.6047L9.39532 24.2484C9.47586 24.3286 9.57141 24.3921 9.67651 24.4352C9.78162 24.4784 9.8942 24.5004 10.0078 24.5H17.9922C18.1058 24.5004 18.2184 24.4784 18.3235 24.4352C18.4286 24.3921 18.5242 24.3286 18.6047 24.2484L24.2484 18.6047C24.3286 18.5242 24.3921 18.4286 24.4352 18.3235C24.4784 18.2184 24.5004 18.1058 24.5 17.9922V10.0078C24.5004 9.8942 24.4784 9.78162 24.4352 9.67651C24.3921 9.57141 24.3286 9.47586 24.2484 9.39532L18.6047 3.75157C18.5242 3.67143 18.4286 3.60795 18.3235 3.56479C18.2184 3.52162 18.1058 3.49961 17.9922 3.50001V3.50001Z" stroke="#FAFAFB" stroke-width="2" stroke-miterlimit="10"/>
<path d="M14 20.125C14.7249 20.125 15.3125 19.5374 15.3125 18.8125C15.3125 18.0876 14.7249 17.5 14 17.5C13.2751 17.5 12.6875 18.0876 12.6875 18.8125C12.6875 19.5374 13.2751 20.125 14 20.125Z" fill="#FAFAFB"/>
</svg>
