<svg width="28" height="28" viewBox="0 0 28 28" fill="none" xmlns="http://www.w3.org/2000/svg">
<path d="M14 11.375V15.75" stroke="#FAFAFB" stroke-width="2" stroke-linecap="round" stroke-linejoin="round"/>
<path d="M12.4903 4.37479L2.86532 20.9998C2.71199 21.2654 2.63113 21.5666 2.63086 21.8733C2.63059 22.1799 2.71091 22.4813 2.86377 22.7471C3.01664 23.013 3.23668 23.234 3.50186 23.388C3.76703 23.5421 4.06803 23.6237 4.3747 23.6248H23.6247C23.9314 23.6237 24.2324 23.5421 24.4975 23.388C24.7627 23.234 24.9828 23.013 25.1356 22.7471C25.2885 22.4813 25.3688 22.1799 25.3685 21.8733C25.3683 21.5666 25.2874 21.2654 25.1341 20.9998L15.5091 4.37479C15.3569 4.10886 15.1371 3.88786 14.8721 3.73416C14.607 3.58046 14.3061 3.49951 13.9997 3.49951C13.6933 3.49951 13.3923 3.58046 13.1273 3.73416C12.8622 3.88786 12.6425 4.10886 12.4903 4.37479V4.37479Z" stroke="#FAFAFB" stroke-width="2" stroke-linecap="round" stroke-linejoin="round"/>
<path d="M14 21C14.7249 21 15.3125 20.4124 15.3125 19.6875C15.3125 18.9626 14.7249 18.375 14 18.375C13.2751 18.375 12.6875 18.9626 12.6875 19.6875C12.6875 20.4124 13.2751 21 14 21Z" fill="#FAFAFB"/>
</svg>
