<svg width="28" height="28" viewBox="0 0 28 28" fill="none" xmlns="http://www.w3.org/2000/svg">
<path d="M4.96592 19.3592C3.66314 17.1612 3.20744 14.5633 3.68438 12.0531C4.16132 9.54296 5.53809 7.2932 7.55623 5.7262C9.57437 4.15919 12.0951 3.38271 14.6452 3.54252C17.1952 3.70234 19.5993 4.78745 21.406 6.59416C23.2127 8.40087 24.2978 10.8049 24.4576 13.355C24.6174 15.9051 23.8409 18.4258 22.2739 20.4439C20.7069 22.462 18.4572 23.8388 15.947 24.3158C13.4368 24.7927 10.8389 24.337 8.64092 23.0342V23.0342L5.00967 24.0623C4.8609 24.1059 4.70316 24.1085 4.55298 24.0701C4.40281 24.0317 4.26574 23.9536 4.15613 23.844C4.04652 23.7344 3.96842 23.5973 3.93001 23.4472C3.89159 23.297 3.89428 23.1392 3.9378 22.9905L4.96592 19.3592Z" stroke="#FAFAFB" stroke-width="2" stroke-linecap="round" stroke-linejoin="round"/>
<path d="M16.636 20.125C15.4847 20.1279 14.3441 19.9033 13.2799 19.464C12.2157 19.0248 11.2487 18.3795 10.4346 17.5654C9.62051 16.7513 8.97529 15.7844 8.53604 14.7202C8.09678 13.6559 7.87214 12.5154 7.87503 11.3641C7.87792 10.5538 8.20185 9.77761 8.77587 9.20564C9.34989 8.63367 10.1272 8.31252 10.9375 8.31252V8.31252C11.0712 8.31146 11.2027 8.34645 11.3182 8.41381C11.4337 8.48118 11.5289 8.57843 11.5938 8.69534L12.8735 10.9266C12.9496 11.0622 12.9886 11.2155 12.9867 11.371C12.9848 11.5265 12.942 11.6788 12.8625 11.8125L11.8344 13.5297C12.361 14.7012 13.2988 15.639 14.4703 16.1656L16.1875 15.1375C16.3212 15.0581 16.4735 15.0153 16.629 15.0134C16.7845 15.0114 16.9378 15.0505 17.0735 15.1266L19.3047 16.4063C19.4216 16.4712 19.5189 16.5663 19.5862 16.6818C19.6536 16.7973 19.6886 16.9288 19.6875 17.0625C19.6847 17.872 19.3626 18.6476 18.7912 19.221C18.2199 19.7944 17.4454 20.1193 16.636 20.125V20.125Z" stroke="#FAFAFB" stroke-width="2" stroke-linecap="round" stroke-linejoin="round"/>
</svg>
