<svg width="28" height="28" viewBox="0 0 28 28" fill="none" xmlns="http://www.w3.org/2000/svg">
<path d="M17.5 14L12.25 10.5V17.5L17.5 14Z" stroke="#FAFAFB" stroke-width="2" stroke-linecap="round" stroke-linejoin="round"/>
<path d="M2.625 13.9998C2.625 17.2591 2.96406 19.1623 3.21562 20.1466C3.28499 20.4137 3.41616 20.6608 3.59854 20.8679C3.78093 21.075 4.00943 21.2363 4.26562 21.3388C7.92969 22.7388 14 22.706 14 22.706C14 22.706 20.0703 22.7388 23.7344 21.3388C23.9906 21.2363 24.2191 21.075 24.4015 20.8679C24.5838 20.6608 24.715 20.4137 24.7844 20.1466C25.0359 19.1623 25.375 17.2591 25.375 13.9998C25.375 10.7404 25.0359 8.83727 24.7844 7.8529C24.715 7.58581 24.5838 7.33875 24.4015 7.13167C24.2191 6.92458 23.9906 6.76326 23.7344 6.66071C20.0703 5.26071 14 5.29352 14 5.29352C14 5.29352 7.92969 5.26071 4.26562 6.66071C4.00943 6.76326 3.78093 6.92458 3.59854 7.13167C3.41616 7.33875 3.28499 7.58581 3.21562 7.8529C2.96406 8.83727 2.625 10.7404 2.625 13.9998Z" stroke="#FAFAFB" stroke-width="2" stroke-linecap="round" stroke-linejoin="round"/>
</svg>
